<?xml version="1.0" encoding="UTF-8" standalone="no"?>
<!-- Generator: Adobe Illustrator 22.0.0, SVG Export Plug-In . SVG Version: 6.00 Build 0)  -->

<svg
   xmlns:dc="http://purl.org/dc/elements/1.1/"
   xmlns:cc="http://creativecommons.org/ns#"
   xmlns:rdf="http://www.w3.org/1999/02/22-rdf-syntax-ns#"
   xmlns:svg="http://www.w3.org/2000/svg"
   xmlns="http://www.w3.org/2000/svg"
   xmlns:sodipodi="http://sodipodi.sourceforge.net/DTD/sodipodi-0.dtd"
   xmlns:inkscape="http://www.inkscape.org/namespaces/inkscape"
   version="1.1"
   id="Слой_1"
   x="0px"
   y="0px"
   viewBox="0 0 523.25 360"
   xml:space="preserve"
   inkscape:version="0.48.3.1 r9886"
   width="100%"
   height="100%"
   sodipodi:docname="переменывсегдаклучшему (3).svg"><metadata
   id="metadata124"><rdf:RDF><cc:Work
       rdf:about=""><dc:format>image/svg+xml</dc:format><dc:type
         rdf:resource="http://purl.org/dc/dcmitype/StillImage" /></cc:Work></rdf:RDF></metadata><defs
   id="defs122" /><sodipodi:namedview
   pagecolor="#ffffff"
   bordercolor="#666666"
   borderopacity="1"
   objecttolerance="10"
   gridtolerance="10"
   guidetolerance="10"
   inkscape:pageopacity="0"
   inkscape:pageshadow="2"
   inkscape:window-width="1280"
   inkscape:window-height="971"
   id="namedview120"
   showgrid="false"
   inkscape:showpageshadow="false"
   inkscape:zoom="0.921875"
   inkscape:cx="108.89236"
   inkscape:cy="230.78258"
   inkscape:window-x="-8"
   inkscape:window-y="-8"
   inkscape:window-maximized="1"
   inkscape:current-layer="Слой_1" />
<style
   type="text/css"
   id="style3">
	.st0{fill:none;}
	.st1{fill:#1A171B;}
	.st2{fill:#FBB03B;stroke:#000000;stroke-miterlimit:10;}
	.st3{fill:url(#_x31_0_dpi_30_x25_);}
	.st4{fill:#A67C52;stroke:#000000;stroke-miterlimit:10;}
	.st5{fill:#C69C6D;stroke:#000000;stroke-miterlimit:10;}
	.st6{fill:#603813;stroke:#000000;stroke-miterlimit:10;}
	.st7{fill:#42210B;stroke:#000000;stroke-miterlimit:10;}
	.st8{fill:#F9F1D5;}
	.st9{fill:#F2E3AB;}
	.st10{fill:#006837;}
	.st11{fill:#009245;}
	.st12{fill:#603813;}
	.st13{fill:#8C6239;stroke:#000000;stroke-miterlimit:10;}
</style>
<pattern
   width="28.8"
   height="28.8"
   patternUnits="userSpaceOnUse"
   id="_x31_0_dpi_30_x25_"
   viewBox="2.2 -31 28.8 28.8">
	<g
   id="g6">
		<rect
   x="2.2"
   y="-31"
   class="st0"
   width="28.8"
   height="28.8"
   id="rect8" />
		<g
   id="g10">
			<path
   class="st1"
   d="M31,0c1.2,0,2.2-1,2.2-2.2c0-1.2-1-2.2-2.2-2.2c-1.2,0-2.2,1-2.2,2.2C28.8-1,29.8,0,31,0z"
   id="path12" />
			<path
   class="st1"
   d="M16.6,0c1.2,0,2.2-1,2.2-2.2c0-1.2-1-2.2-2.2-2.2c-1.2,0-2.2,1-2.2,2.2C14.4-1,15.4,0,16.6,0z"
   id="path14" />
			<path
   class="st1"
   d="M31-14.4c1.2,0,2.2-1,2.2-2.2c0-1.2-1-2.2-2.2-2.2c-1.2,0-2.2,1-2.2,2.2C28.8-15.4,29.8-14.4,31-14.4z"
   id="path16" />
			<path
   class="st1"
   d="M16.6-14.4c1.2,0,2.2-1,2.2-2.2c0-1.2-1-2.2-2.2-2.2c-1.2,0-2.2,1-2.2,2.2C14.4-15.4,15.4-14.4,16.6-14.4z"
   id="path18" />
			<path
   class="st1"
   d="M9.4-7.2c1.2,0,2.2-1,2.2-2.2c0-1.2-1-2.2-2.2-2.2c-1.2,0-2.2,1-2.2,2.2C7.2-8.2,8.2-7.2,9.4-7.2z"
   id="path20" />
			<path
   class="st1"
   d="M23.8-7.2c1.2,0,2.2-1,2.2-2.2c0-1.2-1-2.2-2.2-2.2c-1.2,0-2.2,1-2.2,2.2C21.6-8.2,22.6-7.2,23.8-7.2z"
   id="path22" />
			<path
   class="st1"
   d="M9.4-21.6c1.2,0,2.2-1,2.2-2.2c0-1.2-1-2.2-2.2-2.2c-1.2,0-2.2,1-2.2,2.2C7.2-22.6,8.2-21.6,9.4-21.6z"
   id="path24" />
			<path
   class="st1"
   d="M23.8-21.6c1.2,0,2.2-1,2.2-2.2c0-1.2-1-2.2-2.2-2.2c-1.2,0-2.2,1-2.2,2.2C21.6-22.6,22.6-21.6,23.8-21.6z"
   id="path26" />
		</g>
		<g
   id="g28">
			<path
   class="st1"
   d="M2.2,0c1.2,0,2.2-1,2.2-2.2c0-1.2-1-2.2-2.2-2.2C1-4.3,0-3.4,0-2.2C0-1,1,0,2.2,0z"
   id="path30" />
			<path
   class="st1"
   d="M2.2-14.4c1.2,0,2.2-1,2.2-2.2c0-1.2-1-2.2-2.2-2.2c-1.2,0-2.2,1-2.2,2.2C0-15.4,1-14.4,2.2-14.4z"
   id="path32" />
		</g>
		<g
   id="g34">
			<path
   class="st1"
   d="M31-28.8c1.2,0,2.2-1,2.2-2.2c0-1.2-1-2.2-2.2-2.2c-1.2,0-2.2,1-2.2,2.2C28.8-29.8,29.8-28.8,31-28.8z"
   id="path36" />
			<path
   class="st1"
   d="M16.6-28.8c1.2,0,2.2-1,2.2-2.2c0-1.2-1-2.2-2.2-2.2c-1.2,0-2.2,1-2.2,2.2C14.4-29.8,15.4-28.8,16.6-28.8z"
   id="path38" />
		</g>
		<g
   id="g40">
			<path
   class="st1"
   d="M2.2-28.8c1.2,0,2.2-1,2.2-2.2c0-1.2-1-2.2-2.2-2.2C1-33.1,0-32.2,0-31C0-29.8,1-28.8,2.2-28.8z"
   id="path42" />
		</g>
	</g>
</pattern>
<rect
   x="0.22343408"
   y="-0.12413883"
   class="st2"
   width="522.80316"
   height="238.84271"
   id="rect44"
   style="fill:#fbb03b;stroke:#000000;stroke-width:0.44686815;stroke-miterlimit:10" />
<ellipse
   class="st3"
   cx="638.79999"
   cy="589.90002"
   rx="302.70001"
   ry="291.29999"
   id="ellipse46"
   sodipodi:cx="638.79999"
   sodipodi:cy="589.90002"
   sodipodi:rx="302.70001"
   sodipodi:ry="291.29999"
   style="fill:url(#_x31_0_dpi_30_x25_)"
   transform="matrix(0.39808614,0,0,0.39808614,4.5306193,-27.656287)" />
<rect
   x="52.699043"
   y="238.74297"
   class="st4"
   width="414.80576"
   height="121.01819"
   id="rect48"
   style="fill:#a67c52;stroke:#000000;stroke-width:0.39808613;stroke-miterlimit:10" />
<g
   id="g50"
   transform="matrix(0.39808614,0,0,0.39808614,4.5306193,-27.656287)">
	<path
   class="st5"
   d="m 532.1,858.8 c 0,0 -27.3,-118.8 -36.9,-189.4 93.1,-11.2 287.3,0 287.3,0 0,0 -22.5,175 -38.5,195.8 -77.1,28.9 -141.3,35.3 -211.9,-6.4 z"
   id="path52"
   inkscape:connector-curvature="0"
   style="fill:#c69c6d;stroke:#000000;stroke-miterlimit:10" />
	<ellipse
   class="st6"
   cx="638.79999"
   cy="669.40002"
   rx="143.7"
   ry="25.700001"
   id="ellipse54"
   sodipodi:cx="638.79999"
   sodipodi:cy="669.40002"
   sodipodi:rx="143.7"
   sodipodi:ry="25.700001"
   style="fill:#603813;stroke:#000000;stroke-miterlimit:10"
   d="m 782.49998,669.40002 c 0,14.19372 -64.33668,25.70001 -143.69999,25.70001 -79.36332,0 -143.7,-11.50629 -143.7,-25.70001 0,-14.19371 64.33668,-25.7 143.7,-25.7 79.36331,0 143.69999,11.50629 143.69999,25.7 z" />
</g>
<g
   id="g56"
   transform="matrix(0.39808614,0,0,0.39808614,4.5306193,-27.656287)">
	<path
   class="st7"
   d="m 574.7,810 14.7,114.2 c 0,0 46.7,30.7 103.5,0.7 12.7,-52.8 18,-114.9 18,-114.9 H 574.7 z"
   id="path58"
   inkscape:connector-curvature="0"
   style="fill:#42210b;stroke:#000000;stroke-miterlimit:10" />
	<ellipse
   class="st4"
   cx="642.79999"
   cy="810"
   rx="68.099998"
   ry="12"
   id="ellipse60"
   sodipodi:cx="642.79999"
   sodipodi:cy="810"
   sodipodi:rx="68.099998"
   sodipodi:ry="12"
   style="fill:#a67c52;stroke:#000000;stroke-miterlimit:10"
   d="m 710.89999,810 c 0,6.62742 -30.48941,12 -68.1,12 -37.61059,0 -68.1,-5.37258 -68.1,-12 0,-6.62742 30.48941,-12 68.1,-12 37.61059,0 68.1,5.37258 68.1,12 z" />
</g>
<g
   id="g62"
   transform="matrix(0.39808614,0,0,0.39808614,4.5306193,-27.656287)">
	<path
   class="st8"
   d="m 735,486.5 c 0,54.3 -49.5,132.1 -89.6,132.5 -40.1,0.4 -97.2,-76 -97.2,-130.3 0,-54.3 43.5,-66.3 97.2,-66.3 53.7,-0.1 89.6,9.8 89.6,64.1 z"
   id="path64"
   inkscape:connector-curvature="0"
   style="fill:#f9f1d5" />
	<path
   class="st9"
   d="m 564.6,476 c 21.1,14.7 115.4,33.9 148.4,-5.1 33,-39 10.9,139.9 -69.6,134.8 C 562.9,600.4 543.5,461.2 564.6,476 z"
   id="path66"
   inkscape:connector-curvature="0"
   style="fill:#f2e3ab" />
	<path
   class="st9"
   d="m 620.9,432.6 c 0,0 -20.6,21.1 -3.7,24.3 16.9,3.2 16.4,-13.2 24.8,-12.2 8.5,1.1 22.2,-8.5 18,-12.2 -4.2,-3.6 -20.6,-9.9 -39.1,0.1 z"
   id="path68"
   inkscape:connector-curvature="0"
   style="fill:#f2e3ab" />
	<path
   class="st10"
   d="m 570.5,142.2 7,-12.7 c 0,0 25.4,156.5 40.9,160.7 15.5,4.2 16.9,-80.4 22.6,-84.6 5.6,-4.2 64.8,-55 64.8,-55 l 2.8,8.5 c 0,0 -56.4,46.5 -56.4,52.2 0,5.7 -22.6,91.6 -19.7,97.3 2.8,5.6 21.1,125.5 21.1,125.5 0,0 -28.2,15.5 -28.2,8.5 0,-7 -5.6,-122.6 -5.6,-128.3 0,-5.7 -25.4,-42.3 -25.4,-42.3 L 547.9,235.3 593,262.1 570.5,142.2 z"
   id="path70"
   inkscape:connector-curvature="0"
   style="fill:#006837" />
	<path
   class="st11"
   d="m 670.6,129.6 c 0,0 -25.4,47.9 -2.8,50.7 22.6,2.8 7,-45.1 2.8,-50.7 z"
   id="path72"
   inkscape:connector-curvature="0"
   style="fill:#009245" />
	<path
   class="st10"
   d="m 686.1,208.5 c 0,0 -32.4,-15.5 -35.2,9.9 -2.9,25.3 35.2,-9.9 35.2,-9.9 z"
   id="path74"
   inkscape:connector-curvature="0"
   style="fill:#006837" />
	<path
   class="st10"
   d="m 717.1,109.8 c 0,0 -36.7,29.6 -18.3,39.5 18.3,9.9 18.3,-39.5 18.3,-39.5 z"
   id="path76"
   inkscape:connector-curvature="0"
   style="fill:#006837" />
	<path
   class="st11"
   d="m 731.2,163.4 c 0,0 -49.3,-11.3 -39.5,4.2 9.8,15.5 39.5,-4.2 39.5,-4.2 z"
   id="path78"
   inkscape:connector-curvature="0"
   style="fill:#009245" />
	<path
   class="st11"
   d="m 586,105.6 c 0,0 -29.6,1.4 -15.5,24 14.1,22.6 15.5,-24 15.5,-24 z"
   id="path80"
   inkscape:connector-curvature="0"
   style="fill:#009245" />
	<path
   class="st10"
   d="m 545.1,219.8 c 0,0 -8.5,29.6 9.9,26.8 18.3,-2.9 -9.9,-26.8 -9.9,-26.8 z"
   id="path82"
   inkscape:connector-curvature="0"
   style="fill:#006837" />
	<path
   class="st10"
   d="m 557.8,271.9 c 0,0 9.9,-24 25.4,-8.5 15.5,15.6 -25.4,8.5 -25.4,8.5 z"
   id="path84"
   inkscape:connector-curvature="0"
   style="fill:#006837" />
	<path
   class="st11"
   d="m 601.5,149.3 c 0,0 -39.5,7 -21.1,26.8 18.4,19.8 21.1,-26.8 21.1,-26.8 z"
   id="path86"
   inkscape:connector-curvature="0"
   style="fill:#009245" />
	<path
   class="st10"
   d="m 546.5,188.8 c 0,0 16.9,46.5 36.7,29.6 19.7,-16.9 -36.7,-29.6 -36.7,-29.6 z"
   id="path88"
   inkscape:connector-curvature="0"
   style="fill:#006837" />
	<path
   class="st10"
   d="m 614.2,225.4 c 0,0 -14.1,29.6 4.2,33.8 18.3,4.3 -4.2,-33.8 -4.2,-33.8 z"
   id="path90"
   inkscape:connector-curvature="0"
   style="fill:#006837" />
	<path
   class="st11"
   d="m 664.9,259.3 c 0,0 -62,4.2 -38.1,14.1 24,9.8 38.1,-14.1 38.1,-14.1 z"
   id="path92"
   inkscape:connector-curvature="0"
   style="fill:#009245" />
	<path
   class="st11"
   d="m 546.5,128.2 c 0,0 -2.8,33.8 15.5,32.4 18.4,-1.4 -15.5,-32.4 -15.5,-32.4 z"
   id="path94"
   inkscape:connector-curvature="0"
   style="fill:#009245" />
	<path
   class="st12"
   d="m 689.6,531 c 0,0 -4.6,3.9 -2.1,4.6 2.5,0.7 17.6,7.8 14.8,21.9 -2.8,14.1 -6.7,48.6 -0.4,49 6.3,0.4 -7.9,-3.7 1.6,-46 6,-27.9 -13.9,-29.5 -13.9,-29.5 z"
   id="path96"
   inkscape:connector-curvature="0"
   style="fill:#603813" />
	<path
   class="st12"
   d="m 570.9,541.8 c 0,0 4.6,-3.5 3.5,1.1 -1.1,4.6 -8.5,41.6 -4.9,46.2 3.6,4.5 -5.3,-20.8 1.4,-47.3 z"
   id="path98"
   inkscape:connector-curvature="0"
   style="fill:#603813" />
	<path
   class="st12"
   d="m 664.8,545 c 0,0 3.5,-3.5 4.9,-1.1 1.4,2.5 -3.9,65.2 2.8,65.2 6.8,0 -9.1,-43 -7.7,-64.1 z"
   id="path100"
   inkscape:connector-curvature="0"
   style="fill:#603813" />
	<path
   class="st12"
   d="m 620.2,609.6 6,1.4 c 0,0 -0.7,26.4 1.4,32.8 2.1,6.3 2.1,24 -2.5,26.8 -4.6,2.8 4.2,-10.6 0.7,-26.4 -3.5,-16 -8.4,-34.3 -5.6,-34.6 z"
   id="path102"
   inkscape:connector-curvature="0"
   style="fill:#603813" />
	<path
   class="st12"
   d="m 652.6,615.2 4.6,-1.1 c 0,0 -5.6,24.3 -2.8,27.8 2.8,3.6 -4.6,-8.7 -1.8,-26.7 z"
   id="path104"
   inkscape:connector-curvature="0"
   style="fill:#603813" />
	<path
   class="st12"
   d="m 715.6,548.7 c 0,0 -4.9,0.4 -2.1,3.9 2.8,3.5 -5.6,14.4 -2.5,22.9 3.1,8.5 1.1,-16.9 4.2,-17.6 3.1,-0.7 0.4,-9.2 0.4,-9.2 z"
   id="path106"
   inkscape:connector-curvature="0"
   style="fill:#603813" />
	<path
   class="st12"
   d="m 585.6,583.8 c 0,0 16.2,-4.2 10.6,4.2 -5.6,8.4 -6.3,27.8 -2.8,32.1 3.5,4.2 -9.5,-2.5 -5.3,-26.4 3.5,-9.5 -2.5,-9.9 -2.5,-9.9 z"
   id="path108"
   inkscape:connector-curvature="0"
   style="fill:#603813" />
	<path
   class="st12"
   d="m 601.1,530.3 c 0,0 16.2,-2.5 7.4,4.6 -8.8,7 -3.2,31.7 -3.2,31.7 0,0 -4.9,-8.5 -4.2,-36.3 z"
   id="path110"
   inkscape:connector-curvature="0"
   style="fill:#603813" />
	<path
   class="st12"
   d="m 637.4,564.8 c 0,0 9.2,0.4 6.7,2.8 -2.5,2.5 -7.4,9.9 -6,23.3 1.4,13.4 3.9,24 1.4,22.9 -2.4,-1.1 -4.9,-36.3 -2.1,-49 z"
   id="path112"
   inkscape:connector-curvature="0"
   style="fill:#603813" />
	<path
   class="st12"
   d="m 561.6,506.1 c 0,0 6.7,4.9 2.1,5.3 -4.6,0.4 -18.3,22.9 -14.8,28.9 3.5,6 10.9,16.9 6.7,20.8 -4.2,3.9 3.5,-6 -9.5,-20.4 -13,-14.5 15.5,-34.6 15.5,-34.6 z"
   id="path114"
   inkscape:connector-curvature="0"
   style="fill:#603813" />
	<path
   class="st12"
   d="m 715.4,510.9 c 0,0 1.4,-14.1 4.2,-10.6 2.8,3.5 19,15.2 14.4,33.8 -4.6,18.7 -8.1,16.9 -3.5,21.1 4.6,4.2 -8.8,1.1 -0.7,-21.5 8.1,-22.4 -14.4,-22.8 -14.4,-22.8 z"
   id="path116"
   inkscape:connector-curvature="0"
   style="fill:#603813" />
</g>
<path
   class="st13"
   d="m 130.42569,239.06135 c 0,0 13.48486,118.0725 130.87074,117.19671 117.38588,-0.87579 125.30176,-117.19671 125.30176,-117.19671 l 136.45284,-0.27866 0,121.01835 -522.85206251,0 0,-121.01835 z"
   id="path118"
   inkscape:connector-curvature="0"
   style="fill:#8c6239;stroke:#000000;stroke-width:0.39793497;stroke-miterlimit:10"
   sodipodi:nodetypes="cscccccc" />
</svg>