<?xml version="1.0" encoding="UTF-8" standalone="no"?>
<!-- Generator: Adobe Illustrator 19.1.0, SVG Export Plug-In . SVG Version: 6.00 Build 0)  -->

<svg
   xmlns:dc="http://purl.org/dc/elements/1.1/"
   xmlns:cc="http://creativecommons.org/ns#"
   xmlns:rdf="http://www.w3.org/1999/02/22-rdf-syntax-ns#"
   xmlns:svg="http://www.w3.org/2000/svg"
   xmlns="http://www.w3.org/2000/svg"
   xmlns:sodipodi="http://sodipodi.sourceforge.net/DTD/sodipodi-0.dtd"
   xmlns:inkscape="http://www.inkscape.org/namespaces/inkscape"
   version="1.1"
   id="Capa_1"
   x="0px"
   y="0px"
   viewBox="0 0 45 45"
   xml:space="preserve"
   inkscape:version="0.48.3.1 r9886"
   width="100%"
   height="100%"
   sodipodi:docname="cancel (1).svg"><metadata
   id="metadata45"><rdf:RDF><cc:Work
       rdf:about=""><dc:format>image/svg+xml</dc:format><dc:type
         rdf:resource="http://purl.org/dc/dcmitype/StillImage" /></cc:Work></rdf:RDF></metadata><defs
   id="defs43" /><sodipodi:namedview
   pagecolor="#ffffff"
   bordercolor="#666666"
   borderopacity="1"
   objecttolerance="10"
   gridtolerance="10"
   guidetolerance="10"
   inkscape:pageopacity="0"
   inkscape:pageshadow="2"
   inkscape:window-width="1280"
   inkscape:window-height="971"
   id="namedview41"
   showgrid="false"
   inkscape:zoom="3.973064"
   inkscape:cx="33.407805"
   inkscape:cy="45.723276"
   inkscape:window-x="-8"
   inkscape:window-y="-8"
   inkscape:window-maximized="1"
   inkscape:current-layer="g5" style="fill:#252525" />
<g
   id="g3"
   transform="scale(0.09469697,0.09469697)">
	<g
   id="g5">
		<path
   d="M 405.6,69.6 C 360.7,24.7 301.1,0 237.6,0 174.1,0 114.5,24.7 69.6,69.6 24.7,114.5 0,174.1 0,237.6 c 0,63.5 24.7,123.1 69.6,168 44.9,44.9 104.5,69.6 168,69.6 63.5,0 123.1,-24.7 168,-69.6 44.9,-44.9 69.6,-104.5 69.6,-168 0,-63.5 -24.7,-123.1 -69.6,-168 z m -19.1,316.9 c -39.8,39.8 -92.7,61.7 -148.9,61.7 -56.2,0 -109.1,-21.9 -148.9,-61.7 C 6.6,304.4 6.6,170.8 88.7,88.7 128.5,48.9 181.4,27 237.6,27 c 56.2,0 109.1,21.9 148.9,61.7 82.1,82.1 82.1,215.7 0,297.8 z"
   id="path7"
   inkscape:connector-curvature="0"
   style="fill:#ffffff;fill-opacity:1" />
		<path
   d="m 342.3,132.9 c -5.3,-5.3 -13.8,-5.3 -19.1,0 L 237.6,218.5 152,132.9 c -5.3,-5.3 -13.8,-5.3 -19.1,0 -5.3,5.3 -5.3,13.8 0,19.1 l 85.6,85.6 -85.6,85.6 c -5.3,5.3 -5.3,13.8 0,19.1 2.6,2.6 6.1,4 9.5,4 3.4,0 6.9,-1.3 9.5,-4 l 85.6,-85.6 85.6,85.6 c 2.6,2.6 6.1,4 9.5,4 3.5,0 6.9,-1.3 9.5,-4 5.3,-5.3 5.3,-13.8 0,-19.1 L 256.7,237.6 342.3,152 c 5.3,-5.3 5.3,-13.8 0,-19.1 z"
   id="path9"
   inkscape:connector-curvature="0"
   style="fill:#ffffff;fill-opacity:1" />
	</g>
</g>
<g
   id="g11"
   transform="translate(0,-430.2)">
</g>
<g
   id="g13"
   transform="translate(0,-430.2)">
</g>
<g
   id="g15"
   transform="translate(0,-430.2)">
</g>
<g
   id="g17"
   transform="translate(0,-430.2)">
</g>
<g
   id="g19"
   transform="translate(0,-430.2)">
</g>
<g
   id="g21"
   transform="translate(0,-430.2)">
</g>
<g
   id="g23"
   transform="translate(0,-430.2)">
</g>
<g
   id="g25"
   transform="translate(0,-430.2)">
</g>
<g
   id="g27"
   transform="translate(0,-430.2)">
</g>
<g
   id="g29"
   transform="translate(0,-430.2)">
</g>
<g
   id="g31"
   transform="translate(0,-430.2)">
</g>
<g
   id="g33"
   transform="translate(0,-430.2)">
</g>
<g
   id="g35"
   transform="translate(0,-430.2)">
</g>
<g
   id="g37"
   transform="translate(0,-430.2)">
</g>
<g
   id="g39"
   transform="translate(0,-430.2)">
</g>
</svg>