<?xml version="1.0" encoding="UTF-8" standalone="no"?>
<!-- Generator: Adobe Illustrator 18.1.1, SVG Export Plug-In . SVG Version: 6.00 Build 0)  -->

<svg
   xmlns:dc="http://purl.org/dc/elements/1.1/"
   xmlns:cc="http://creativecommons.org/ns#"
   xmlns:rdf="http://www.w3.org/1999/02/22-rdf-syntax-ns#"
   xmlns:svg="http://www.w3.org/2000/svg"
   xmlns="http://www.w3.org/2000/svg"
   xmlns:sodipodi="http://sodipodi.sourceforge.net/DTD/sodipodi-0.dtd"
   xmlns:inkscape="http://www.inkscape.org/namespaces/inkscape"
   version="1.1"
   id="Capa_1"
   x="0px"
   y="0px"
   viewBox="0 0 45 45"
   xml:space="preserve"
   inkscape:version="0.48.3.1 r9886"
   width="100%"
   height="100%"
   sodipodi:docname="expand.svg"><metadata
   id="metadata44"><rdf:RDF><cc:Work
       rdf:about=""><dc:format>image/svg+xml</dc:format><dc:type
         rdf:resource="http://purl.org/dc/dcmitype/StillImage" /></cc:Work></rdf:RDF></metadata><defs
   id="defs42" /><sodipodi:namedview
   pagecolor="#ffffff"
   bordercolor="#666666"
   borderopacity="1"
   objecttolerance="10"
   gridtolerance="10"
   guidetolerance="10"
   inkscape:pageopacity="0"
   inkscape:pageshadow="2"
   inkscape:window-width="1280"
   inkscape:window-height="971"
   id="namedview40"
   showgrid="false"
   inkscape:zoom="9.4927799"
   inkscape:cx="12.4305"
   inkscape:cy="12.4305"
   inkscape:window-x="-8"
   inkscape:window-y="-8"
   inkscape:window-maximized="1"
   inkscape:current-layer="c109_expand" />
<g
   id="g3"
   transform="translate(0,20.139)">
	<g
   id="c109_expand">
		<path
   style="fill:#ffffff;fill-opacity:1;stroke:#000000;stroke-width:0.5;stroke-opacity:1;stroke-miterlimit:4;stroke-dasharray:none"
   d="M 44.129586,-5.0422386 43.94862,-18.306717 c 0,0 0.07308,-0.960513 -0.857848,-0.962254 -1.285902,0 -13.306216,0.191407 -13.306216,0.191407 0,0 -1.632174,0 -0.549857,1.082318 1.085795,1.084057 2.822372,2.815417 2.822372,2.815417 0,0 -0.473296,0.471556 -1.19194,1.190201 -2.227273,2.222057 -6.556534,6.5495865 -8.214809,8.2078638 0,0 -0.394993,0.3793332 0.106144,0.8839506 0.501136,0.5011374 6.210264,6.2102747 6.918467,6.9132597 0.701242,0.7047246 1.037074,0.121809 1.037074,0.121809 1.705256,-1.7052596 5.893573,-5.8935839 8.199148,-8.1939435 0.802166,-0.8056479 1.320703,-1.3259259 1.320703,-1.3259259 0,0 2.159412,2.1559346 3.05206,3.0451053 0.89091,0.894391 0.845668,-0.7047243 0.845668,-0.7047243 z"
   id="path6"
   inkscape:connector-curvature="0" />
		<path
   style="fill:#ffffff;fill-opacity:1;stroke:#000000;stroke-width:0.5;stroke-opacity:1;stroke-miterlimit:4;stroke-dasharray:none"
   d="M 15.237679,2.6140271 C 14.740024,2.1111484 14.358951,2.5113592 14.358951,2.5113592 12.700677,4.1661557 8.3748951,8.4954265 6.1528423,10.719224 c -0.7221236,0.720384 -1.191939,1.19542 -1.191939,1.19542 0,0 -1.7278766,-1.729619 -2.8154122,-2.8188968 -1.0823155,-1.0840583 -1.0805754,0.5498595 -1.0805754,0.5498595 0,0 -0.19140632,12.0238143 -0.19488643,13.3079793 0.00348,0.929193 0.96399153,0.85263 0.96399153,0.85263 l 13.2679352,0.184446 c 0,0 1.592152,0.04176 0.701243,-0.845668 -0.89613,-0.894391 -3.05032,-3.052066 -3.05032,-3.052066 0,0 0.525496,-0.523758 1.327663,-1.329406 2.302095,-2.29862 6.490412,-6.486944 8.192188,-8.190464 0,0 0.584659,-0.339312 -0.114844,-1.0422953 -0.708203,-0.7047245 -6.41733,-6.4121225 -6.920207,-6.9167391 z"
   id="path8"
   inkscape:connector-curvature="0" />
	</g>
</g>
<g
   id="g10"
   transform="translate(0,20.139)">
</g>
<g
   id="g12"
   transform="translate(0,20.139)">
</g>
<g
   id="g14"
   transform="translate(0,20.139)">
</g>
<g
   id="g16"
   transform="translate(0,20.139)">
</g>
<g
   id="g18"
   transform="translate(0,20.139)">
</g>
<g
   id="g20"
   transform="translate(0,20.139)">
</g>
<g
   id="g22"
   transform="translate(0,20.139)">
</g>
<g
   id="g24"
   transform="translate(0,20.139)">
</g>
<g
   id="g26"
   transform="translate(0,20.139)">
</g>
<g
   id="g28"
   transform="translate(0,20.139)">
</g>
<g
   id="g30"
   transform="translate(0,20.139)">
</g>
<g
   id="g32"
   transform="translate(0,20.139)">
</g>
<g
   id="g34"
   transform="translate(0,20.139)">
</g>
<g
   id="g36"
   transform="translate(0,20.139)">
</g>
<g
   id="g38"
   transform="translate(0,20.139)">
</g>
</svg>