<?xml version="1.0" encoding="UTF-8" standalone="no"?>
<svg
   xmlns:dc="http://purl.org/dc/elements/1.1/"
   xmlns:cc="http://creativecommons.org/ns#"
   xmlns:rdf="http://www.w3.org/1999/02/22-rdf-syntax-ns#"
   xmlns:svg="http://www.w3.org/2000/svg"
   xmlns="http://www.w3.org/2000/svg"
   xmlns:sodipodi="http://sodipodi.sourceforge.net/DTD/sodipodi-0.dtd"
   xmlns:inkscape="http://www.inkscape.org/namespaces/inkscape"
   height="24"
   viewBox="0 0 32 32"
   width="24"
   id="svg2"
   version="1.1"
   inkscape:version="0.48.3.1 r9886"
   sodipodi:docname="ic_account_box_black_18px.svg"
   style="fill:#000000">
  <metadata
     id="metadata12">
    <rdf:RDF>
      <cc:Work
         rdf:about="">
        <dc:format>image/svg+xml</dc:format>
        <dc:type
           rdf:resource="http://purl.org/dc/dcmitype/StillImage" />
      </cc:Work>
    </rdf:RDF>
  </metadata>
  <defs
     id="defs10" />
  <sodipodi:namedview
     pagecolor="#ffffff"
     bordercolor="#666666"
     borderopacity="1"
     objecttolerance="10"
     gridtolerance="10"
     guidetolerance="10"
     inkscape:pageopacity="0"
     inkscape:pageshadow="2"
     inkscape:window-width="1280"
     inkscape:window-height="971"
     id="namedview8"
     showgrid="false"
     inkscape:zoom="26.222222"
     inkscape:cx="18.54201"
     inkscape:cy="12.279644"
     inkscape:window-x="-8"
     inkscape:window-y="-8"
     inkscape:window-maximized="1"
     inkscape:current-layer="svg2"
     inkscape:showpageshadow="false" />
  <path
     d="M 0,3.5555553 V 28.444444 C 0,30.4 1.5822221,32 3.5555555,32 H 28.444444 C 30.399999,32 32,30.4 32,28.444444 V 3.5555553 C 32,1.5999998 30.399999,0 28.444444,0 H 3.5555555 C 1.5822221,0 0,1.5999998 0,3.5555553 z M 21.333332,10.666666 C 21.333332,13.617778 18.951111,16 16,16 c -2.951111,0 -5.333333,-2.382222 -5.333333,-5.333334 0,-2.9511108 2.382222,-5.3333334 5.333333,-5.3333334 2.951111,0 5.333332,2.3822226 5.333332,5.3333334 z M 5.3333332,24.888889 c 0,-3.555555 7.1111118,-5.511111 10.6666668,-5.511111 3.555555,0 10.666667,1.955556 10.666667,5.511111 v 1.777778 H 5.3333332 v -1.777778 z"
     id="path4"
     inkscape:connector-curvature="0" />
  <path
     d="M 0,8 H 24 V 32 H 0 z"
     id="path6"
     inkscape:connector-curvature="0"
     style="fill:none" />
</svg>
