<?xml version="1.0" encoding="UTF-8" standalone="no"?>
<svg
   xmlns:dc="http://purl.org/dc/elements/1.1/"
   xmlns:cc="http://creativecommons.org/ns#"
   xmlns:rdf="http://www.w3.org/1999/02/22-rdf-syntax-ns#"
   xmlns:svg="http://www.w3.org/2000/svg"
   xmlns="http://www.w3.org/2000/svg"
   xmlns:sodipodi="http://sodipodi.sourceforge.net/DTD/sodipodi-0.dtd"
   xmlns:inkscape="http://www.inkscape.org/namespaces/inkscape"
   height="20"
   viewBox="0 0 18 20"
   width="18"
   id="svg2"
   version="1.1"
   inkscape:version="0.48.3.1 r9886"
   sodipodi:docname="ic_date_range_black.svg"
   style="fill:#252525">
  <metadata
     id="metadata12">
    <rdf:RDF>
      <cc:Work
         rdf:about="">
        <dc:format>image/svg+xml</dc:format>
        <dc:type
           rdf:resource="http://purl.org/dc/dcmitype/StillImage" />
      </cc:Work>
    </rdf:RDF>
  </metadata>
  <defs
     id="defs10" />
  <sodipodi:namedview
     pagecolor="#ffffff"
     bordercolor="#666666"
     borderopacity="1"
     objecttolerance="10"
     gridtolerance="10"
     guidetolerance="10"
     inkscape:pageopacity="0"
     inkscape:pageshadow="2"
     inkscape:window-width="1280"
     inkscape:window-height="971"
     id="namedview8"
     showgrid="false"
     inkscape:zoom="9.8333333"
     inkscape:cx="12"
     inkscape:cy="12"
     inkscape:window-x="-8"
     inkscape:window-y="-8"
     inkscape:window-maximized="1"
     inkscape:current-layer="svg2" />
  <path
     d="M 5.9999997,9 H 3.9999998 v 2 H 5.9999997 V 9 z M 9.9999999,9 H 7.9999997 v 2 H 9.9999999 V 9 z M 14,9 h -2 v 2 h 2 V 9 z M 16,2 H 15 V 0 H 13 V 2 H 4.9999998 V 0 h -2 v 2 h -1 C 0.88999979,2 0.00999981,2.9 0.00999981,4 L -1.9073486e-7,18 c 0,1.1 0.88999998073486,2 1.99999999073486,2 H 16 c 1.1,0 2,-0.9 2,-2 V 4 C 18,2.9 17.1,2 16,2 z m 0,16 H 1.9999998 V 7 H 16 v 11 z"
     id="path4"
     inkscape:connector-curvature="0" />
  <path
     d="M 0,-4 H 24 V 20 H 0 z"
     id="path6"
     inkscape:connector-curvature="0"
     style="fill:none" />
</svg>
