<?xml version="1.0" encoding="UTF-8" standalone="no"?>
<!-- Generator: Adobe Illustrator 22.0.0, SVG Export Plug-In . SVG Version: 6.00 Build 0)  -->

<svg
   xmlns:dc="http://purl.org/dc/elements/1.1/"
   xmlns:cc="http://creativecommons.org/ns#"
   xmlns:rdf="http://www.w3.org/1999/02/22-rdf-syntax-ns#"
   xmlns:svg="http://www.w3.org/2000/svg"
   xmlns="http://www.w3.org/2000/svg"
   xmlns:xlink="http://www.w3.org/1999/xlink"
   xmlns:sodipodi="http://sodipodi.sourceforge.net/DTD/sodipodi-0.dtd"
   xmlns:inkscape="http://www.inkscape.org/namespaces/inkscape"
   version="1.1"
   id="Слой_1"
   x="0px"
   y="0px"
   viewBox="0 0 42 45"
   xml:space="preserve"
   inkscape:version="0.48.3.1 r9886"
   width="100%"
   height="100%"
   sodipodi:docname="person.svg"><metadata
     id="metadata27"><rdf:RDF><cc:Work
         rdf:about=""><dc:format>image/svg+xml</dc:format><dc:type
           rdf:resource="http://purl.org/dc/dcmitype/StillImage" /><dc:title /></cc:Work></rdf:RDF></metadata><defs
     id="defs25"><defs
       id="defs9"><ellipse
         id="SVGID_1_"
         cx="12"
         cy="11.3"
         rx="8.3000002"
         ry="8.8000002"
         sodipodi:cx="12"
         sodipodi:cy="11.3"
         sodipodi:rx="8.3000002"
         sodipodi:ry="8.8000002" /></defs><clipPath
       id="SVGID_2_"><use
         xlink:href="#SVGID_1_"
         style="overflow:visible"
         id="use15"
         x="0"
         y="0"
         width="24"
         height="24" /></clipPath></defs><sodipodi:namedview
     pagecolor="#ffffff"
     bordercolor="#666666"
     borderopacity="1"
     objecttolerance="10"
     gridtolerance="10"
     guidetolerance="10"
     inkscape:pageopacity="0"
     inkscape:pageshadow="2"
     inkscape:window-width="1280"
     inkscape:window-height="971"
     id="namedview23"
     showgrid="false"
     inkscape:zoom="9.8333333"
     inkscape:cx="40.429932"
     inkscape:cy="23.700887"
     inkscape:window-x="-8"
     inkscape:window-y="-8"
     inkscape:window-maximized="1"
     inkscape:current-layer="Слой_1" /><style
     type="text/css"
     id="style3">
	.st0{clip-path:url(#SVGID_2_);fill:#2D2D2D;}
	.st1{fill:#FFFFFF;}
</style><path
     style="fill:#2d2d2d;fill-opacity:1;stroke:none"
     d="M 19.570965,44.955841 C 14.236448,44.610246 9.0215424,41.879082 5.3644076,37.515547 -2.2739333,28.401807 -1.6852517,14.371214 6.6836008,6.0739918 7.8762321,4.8915683 8.6902765,4.2105349 9.8197354,3.450287 18.356724,-2.2960305 29.580191,-0.73156283 36.368169,7.1509409 c 3.500553,4.0649991 5.428578,9.0429181 5.616736,14.5017171 0.234228,6.79528 -2.264241,13.076367 -7.024435,17.65925 -4.170727,4.015373 -9.628977,6.017127 -15.389505,5.643933 z m 16.716291,-12.00829 -0.04096,-1.609148 -0.380955,-0.802017 c -1.28278,-2.700601 -5.613505,-4.945683 -11.549993,-5.987609 -1.711911,-0.300459 -4.739968,-0.326674 -6.325841,-0.05477 -2.907605,0.498536 -5.355863,1.234238 -7.346138,2.207519 -1.6259642,0.795127 -2.3942419,1.312527 -3.3247483,2.239068 -1.2799975,1.274543 -1.6219411,2.215937 -1.623101,4.468507 l -5.913e-4,1.147593 H 21.011571 36.328215 z M 22.98896,21.15646 c 1.141109,-0.368578 2.014839,-0.907558 2.916294,-1.798986 0.883918,-0.874084 1.487628,-1.832991 1.894567,-3.009246 0.254885,-0.736746 0.282729,-0.954875 0.286475,-2.244181 0.0035,-1.220903 -0.03055,-1.538601 -0.235009,-2.189582 -0.463975,-1.477263 -1.295495,-2.745818 -2.394864,-3.6535675 -1.388097,-1.1461518 -2.866321,-1.6682487 -4.72919,-1.6703101 -4.237421,-0.00468 -7.610576,3.6072276 -7.348268,7.8684006 0.209492,3.403181 2.504209,6.114538 5.834896,6.894308 0.961186,0.225029 2.759269,0.131276 3.775099,-0.196836 z"
     id="path4531"
     inkscape:connector-curvature="0" /></svg>