<svg xmlns="http://www.w3.org/2000/svg" width="45" height="45" viewBox="0 0 45 45"><path d="M17 0C7.626 0 0 7.626 0 17c0 9.373 7.626 17 17 17 9.373 0 17-7.627 17-17 0-9.374-7.626-17-17-17zm7.584 13.11c.007.168.011.337.011.507 0 5.17-3.934 11.131-11.133 11.131-2.21 0-4.267-.646-5.998-1.756.306.036.618.054.933.054 1.834 0 3.52-.625 4.86-1.674a3.917 3.917 0 0 1-3.655-2.718 3.944 3.944 0 0 0 1.766-.066 3.913 3.913 0 0 1-3.138-3.837v-.05c.528.293 1.131.47 1.772.49a3.91 3.91 0 0 1-1.74-3.256c0-.718.193-1.39.53-1.968a11.11 11.11 0 0 0 8.064 4.09 3.913 3.913 0 0 1 6.668-3.57 7.81 7.81 0 0 0 2.485-.95 3.93 3.93 0 0 1-1.722 2.165 7.779 7.779 0 0 0 2.247-.616 7.87 7.87 0 0 1-1.95 2.023z"/></svg>