<?xml version="1.0" encoding="UTF-8" standalone="no"?>
<svg
   xmlns:dc="http://purl.org/dc/elements/1.1/"
   xmlns:cc="http://creativecommons.org/ns#"
   xmlns:rdf="http://www.w3.org/1999/02/22-rdf-syntax-ns#"
   xmlns:svg="http://www.w3.org/2000/svg"
   xmlns="http://www.w3.org/2000/svg"
   xmlns:sodipodi="http://sodipodi.sourceforge.net/DTD/sodipodi-0.dtd"
   xmlns:inkscape="http://www.inkscape.org/namespaces/inkscape"
   enable-background="new 0 0 32 32"
   height="27"
   id="Layer_1"
   version="1.1"
   viewBox="0 0 28 27"
   width="28"
   xml:space="preserve"
   inkscape:version="0.48.3.1 r9886"
   sodipodi:docname="user_avatar_default.svg"><metadata
     id="metadata17"><rdf:RDF><cc:Work
         rdf:about=""><dc:format>image/svg+xml</dc:format><dc:type
           rdf:resource="http://purl.org/dc/dcmitype/StillImage" /></cc:Work></rdf:RDF></metadata><defs
     id="defs15" /><sodipodi:namedview
     pagecolor="#ffffff"
     bordercolor="#666666"
     borderopacity="1"
     objecttolerance="10"
     gridtolerance="10"
     guidetolerance="10"
     inkscape:pageopacity="0"
     inkscape:pageshadow="2"
     inkscape:window-width="1280"
     inkscape:window-height="971"
     id="namedview13"
     showgrid="false"
     inkscape:zoom="7.375"
     inkscape:cx="16"
     inkscape:cy="16"
     inkscape:window-x="-8"
     inkscape:window-y="-8"
     inkscape:window-maximized="1"
     inkscape:current-layer="Layer_1" /><g
     id="g3"
     transform="translate(0,-5)"><polyline
       points="   649,137.999 675,137.999 675,155.999 661,155.999  "
       stroke-miterlimit="10"
       id="polyline5"
       style="fill:none;stroke:#ffffff;stroke-width:2;stroke-linecap:round;stroke-linejoin:round;stroke-miterlimit:10" /><polyline
       points="   653,155.999 649,155.999 649,141.999  "
       stroke-miterlimit="10"
       id="polyline7"
       style="fill:none;stroke:#ffffff;stroke-width:2;stroke-linecap:round;stroke-linejoin:round;stroke-miterlimit:10" /><polyline
       points="   661,156 653,162 653,156  "
       stroke-miterlimit="10"
       id="polyline9"
       style="fill:none;stroke:#ffffff;stroke-width:2;stroke-linecap:round;stroke-linejoin:round;stroke-miterlimit:10" /></g><path
     d="M 19.947,13.332 C 21.219,11.915 22,10.049 22,8 22,3.589 18.411,0 14,0 9.589,0 6,3.589 6,8 c 0,4.411 3.589,8 8,8 1.555,0 3.003,-0.453 4.233,-1.224 4.35,1.639 7.345,5.62 7.726,10.224 H 2.042 C 2.301,21.901 3.755,19.011 6.12,16.949 6.537,16.586 6.58,15.955 6.217,15.538 5.855,15.122 5.223,15.078 4.806,15.441 1.751,18.103 0,21.951 0,26 c 0,0.553 0.448,1 1,1 h 26 c 0.553,0 1,-0.447 1,-1 0,-5.486 -3.18,-10.385 -8.053,-12.668 z M 8,8 c 0,-3.309 2.691,-6 6,-6 3.309,0 6,2.691 6,6 0,3.309 -2.691,6 -6,6 -3.309,0 -6,-2.691 -6,-6 z"
     id="path11"
     inkscape:connector-curvature="0" /></svg>