<?xml version="1.0" encoding="UTF-8" standalone="no"?>
<svg
   xmlns:dc="http://purl.org/dc/elements/1.1/"
   xmlns:cc="http://creativecommons.org/ns#"
   xmlns:rdf="http://www.w3.org/1999/02/22-rdf-syntax-ns#"
   xmlns:svg="http://www.w3.org/2000/svg"
   xmlns="http://www.w3.org/2000/svg"
   xmlns:sodipodi="http://sodipodi.sourceforge.net/DTD/sodipodi-0.dtd"
   xmlns:inkscape="http://www.inkscape.org/namespaces/inkscape"
   data-name="Layer 1"
   viewBox="0 0 42.5 42.5"
   version="1.1"
   id="svg14"
   sodipodi:docname="viber.svg"
   inkscape:version="0.92.1 r15371"
   style="fill:#252525">
  <metadata
     id="metadata20">
    <rdf:RDF>
      <cc:Work
         rdf:about="">
        <dc:format>image/svg+xml</dc:format>
        <dc:type
           rdf:resource="http://purl.org/dc/dcmitype/StillImage" />
      </cc:Work>
    </rdf:RDF>
  </metadata>
  <defs
     id="defs18" />
  <sodipodi:namedview
     pagecolor="#ffffff"
     bordercolor="#666666"
     borderopacity="1"
     objecttolerance="10"
     gridtolerance="10"
     guidetolerance="10"
     inkscape:pageopacity="0"
     inkscape:pageshadow="2"
     inkscape:window-width="1680"
     inkscape:window-height="998"
     id="namedview16"
     showgrid="false"
     inkscape:zoom="2.7764706"
     inkscape:cx="109.93633"
     inkscape:cy="50.977883"
     inkscape:window-x="-8"
     inkscape:window-y="-8"
     inkscape:window-maximized="1"
     inkscape:current-layer="svg14" />
  <title
     id="title2">viber icon</title>
  <path
     style="stroke-width:0.03993"
     d="M 21.25 0 A 21.250746 21.250746 0 0 0 0 21.25 A 21.250746 21.250746 0 0 0 21.25 42.501953 A 21.250746 21.250746 0 0 0 42.5 21.25 A 21.250746 21.250746 0 0 0 21.25 0 z M 20.746094 10.296875 C 21.032094 10.258375 21.364031 10.332734 21.582031 10.302734 C 27.337031 10.494734 32.292656 15.626875 32.222656 21.171875 C 32.217656 21.715875 32.378937 22.522859 31.585938 22.505859 C 30.792937 22.488859 30.997734 21.672906 30.927734 21.128906 C 30.165734 15.243906 27.403109 12.465359 21.412109 11.568359 L 21.408203 11.568359 C 20.911203 11.496359 20.153359 11.602891 20.193359 10.962891 C 20.221359 10.486891 20.460094 10.335375 20.746094 10.296875 z M 12.507812 10.921875 C 12.76044 10.92025 13.011172 10.963186 13.263672 11.054688 C 14.483672 11.492686 17.568672 15.636953 17.638672 16.876953 C 17.691672 17.824953 17.028094 18.342391 16.371094 18.775391 C 15.128094 19.600391 15.121344 20.640687 15.652344 21.804688 C 16.850344 24.434688 18.898734 26.241062 21.552734 27.414062 C 22.515734 27.839063 23.433797 27.797125 24.091797 26.828125 C 25.263797 25.098125 26.697578 25.182815 28.267578 26.257812 C 29.050578 26.797812 29.847656 27.324156 30.597656 27.910156 L 30.601562 27.90625 C 31.616562 28.70525 32.898969 29.368969 32.292969 31.042969 C 31.665969 32.784969 29.476328 34.536531 27.611328 34.519531 C 27.346328 34.447531 26.827328 34.370781 26.361328 34.175781 C 18.170328 30.733781 12.217891 25.098047 8.8378906 16.998047 C 7.6998906 14.284047 8.8851394 11.993685 11.744141 11.054688 C 12.001141 10.969684 12.255187 10.9235 12.507812 10.921875 z M 21.683594 13.089844 C 21.962844 13.066969 22.296484 13.149094 22.583984 13.183594 C 26.278984 13.617594 29.297578 16.739734 29.267578 20.177734 C 29.211578 20.585734 29.455297 21.278859 28.779297 21.380859 C 27.869297 21.516859 28.044031 20.704641 27.957031 20.181641 C 27.352031 16.603641 26.061328 15.291375 22.361328 14.484375 C 21.817328 14.365375 20.976328 14.407859 21.111328 13.630859 C 21.178828 13.241859 21.404344 13.112719 21.683594 13.089844 z M 22.923828 15.992188 C 24.562828 15.954186 26.483031 17.870344 26.457031 19.527344 C 26.474031 19.981344 26.423047 20.457484 25.873047 20.521484 C 25.476047 20.568484 25.217734 20.241797 25.177734 19.841797 C 25.029734 18.363797 24.226936 17.491906 22.710938 17.253906 C 22.257938 17.185906 21.808484 17.041406 22.021484 16.441406 C 22.161484 16.043406 22.540828 16.002187 22.923828 15.992188 z "
     id="ellipse4" />
</svg>
