<svg xmlns="http://www.w3.org/2000/svg" viewBox="0 0 45 45"><g fill="#fff"><path d="M38.41 6.59C34.156 2.34 28.512 0 22.5 0S10.843 2.339 6.59 6.59C2.34 10.844 0 16.488 0 22.5s2.339 11.657 6.59 15.91C10.844 42.66 16.488 45 22.5 45s11.657-2.339 15.91-6.59C42.66 34.156 45 28.512 45 22.5s-2.339-11.657-6.59-15.91zM36.6 36.6a19.814 19.814 0 0 1-14.1 5.843A19.814 19.814 0 0 1 8.4 36.6C.625 28.826.625 16.174 8.4 8.4a19.814 19.814 0 0 1 14.1-5.843A19.814 19.814 0 0 1 36.6 8.4c7.775 7.774 7.775 20.426 0 28.2z"/><path d="M32.415 12.585a1.275 1.275 0 0 0-1.809 0L22.5 20.691l-8.106-8.106a1.275 1.275 0 0 0-1.809 0 1.275 1.275 0 0 0 0 1.809l8.106 8.106-8.106 8.106a1.275 1.275 0 0 0 0 1.809c.246.246.578.379.9.379.322 0 .653-.124.9-.38l8.106-8.105 8.106 8.106c.246.246.577.379.9.379.33 0 .653-.124.899-.38a1.275 1.275 0 0 0 0-1.808L24.309 22.5l8.106-8.106a1.275 1.275 0 0 0 0-1.809z"/></g></svg>