<svg xmlns="http://www.w3.org/2000/svg" viewBox="0 0 45 45"><g fill="#fff" stroke="#000" stroke-width=".5"><path d="M44.13 15.097l-.181-13.265s.073-.96-.858-.962c-1.286 0-13.306.191-13.306.191s-1.633 0-.55 1.083a7315.07 7315.07 0 0 0 2.822 2.815l-1.192 1.19c-2.227 2.222-6.556 6.55-8.215 8.208 0 0-.395.38.106.884.502.501 6.21 6.21 6.919 6.913.701.705 1.037.122 1.037.122 1.705-1.705 5.894-5.893 8.2-8.194l1.32-1.326 3.052 3.045c.89.895.846-.704.846-.704zM15.238 22.753c-.498-.503-.879-.103-.879-.103-1.658 1.655-5.984 5.984-8.206 8.208-.722.72-1.192 1.196-1.192 1.196l-2.816-2.82c-1.082-1.083-1.08.55-1.08.55S.874 41.809.87 43.094c.004.929.964.852.964.852l13.268.185s1.592.041.701-.846c-.896-.894-3.05-3.052-3.05-3.052s.525-.524 1.328-1.33c2.302-2.298 6.49-6.486 8.192-8.19 0 0 .584-.34-.115-1.042-.708-.705-6.417-6.412-6.92-6.917z"/></g></svg>