<svg xmlns="http://www.w3.org/2000/svg" xmlns:xlink="http://www.w3.org/1999/xlink" id="Слой_1" viewBox="0 0 42 45"><defs id="defs25"><defs id="defs9"><ellipse id="SVGID_1_" cx="12" cy="11.3" rx="8.3" ry="8.8"/></defs><clipPath id="SVGID_2_"><use xlink:href="#SVGID_1_" id="use15" width="24" height="24" overflow="visible"/></clipPath></defs><style id="style3">.st0{clip-path:url(#SVGID_2_);fill:#2d2d2d}.st1{fill:#fff}</style><path d="M19.571 44.956c-5.335-.346-10.55-3.077-14.207-7.44-7.638-9.114-7.05-23.145 1.32-31.442C7.876 4.892 8.69 4.211 9.82 3.45c8.537-5.746 19.76-4.182 26.548 3.7 3.5 4.066 5.429 9.044 5.617 14.503.234 6.795-2.264 13.076-7.025 17.659-4.17 4.015-9.629 6.017-15.389 5.644zm16.716-12.008l-.04-1.61-.382-.802c-1.282-2.7-5.613-4.945-11.55-5.987-1.712-.3-4.74-.327-6.325-.055-2.908.499-5.356 1.234-7.347 2.208-1.626.795-2.394 1.312-3.324 2.239-1.28 1.274-1.622 2.216-1.623 4.468l-.001 1.148H36.328zM22.99 21.156c1.141-.368 2.015-.907 2.916-1.799a7.57 7.57 0 0 0 1.895-3.009c.255-.737.283-.955.286-2.244.004-1.22-.03-1.539-.235-2.19-.464-1.477-1.295-2.745-2.395-3.653-1.388-1.146-2.866-1.668-4.729-1.67-4.237-.005-7.61 3.607-7.348 7.868.21 3.403 2.504 6.115 5.835 6.894.961.225 2.76.132 3.775-.197z" id="path4531" fill="#2d2d2d"/></svg>