<svg xmlns="http://www.w3.org/2000/svg" height="27" viewBox="0 0 28 27" width="28"><g stroke-miterlimit="10" fill="none" stroke="#fff" stroke-width="2" stroke-linecap="round" stroke-linejoin="round"><path d="M649 132.999h26v18h-14M653 150.999h-4v-14M661 151l-8 6v-6"/></g><path d="M19.947 13.332A7.958 7.958 0 0 0 22 8c0-4.411-3.589-8-8-8S6 3.589 6 8s3.589 8 8 8a7.943 7.943 0 0 0 4.233-1.224A11.978 11.978 0 0 1 25.959 25H2.042a12.006 12.006 0 0 1 4.078-8.051 1 1 0 1 0-1.314-1.508A14 14 0 0 0 0 26a1 1 0 0 0 1 1h26a1 1 0 0 0 1-1c0-5.486-3.18-10.385-8.053-12.668zM8 8c0-3.309 2.691-6 6-6s6 2.691 6 6-2.691 6-6 6-6-2.691-6-6z"/></svg>