<svg xmlns="http://www.w3.org/2000/svg" data-name="Layer 1" viewBox="0 0 42.5 42.5" fill="#252525"><title>viber icon</title><path d="M21.25 0A21.25 21.25 0 0 0 0 21.25a21.25 21.25 0 0 0 21.25 21.252A21.25 21.25 0 0 0 42.5 21.25 21.25 21.25 0 0 0 21.25 0zm-.504 10.297c.286-.039.618.036.836.006 5.755.192 10.71 5.324 10.64 10.869-.004.544.157 1.35-.636 1.334-.793-.017-.588-.833-.658-1.377-.762-5.885-3.525-8.664-9.516-9.56h-.004c-.497-.073-1.255.034-1.215-.606.028-.476.267-.628.553-.666zm-8.238.625c.252-.002.503.041.756.133 1.22.438 4.305 4.582 4.375 5.822.053.948-.61 1.465-1.268 1.898-1.243.825-1.25 1.866-.719 3.03 1.198 2.63 3.247 4.436 5.9 5.61.964.424 1.882.382 2.54-.587 1.172-1.73 2.606-1.645 4.176-.57.783.54 1.58 1.066 2.33 1.652l.004-.004c1.015.8 2.297 1.463 1.691 3.137-.627 1.742-2.817 3.494-4.682 3.477-.265-.072-.784-.15-1.25-.344-8.19-3.442-14.143-9.078-17.523-17.178-1.138-2.714.047-5.004 2.906-5.943.257-.085.511-.131.764-.133zm9.176 2.168c.279-.023.612.06.9.094 3.695.434 6.714 3.556 6.684 6.994-.056.408.187 1.1-.489 1.203-.91.136-.735-.676-.822-1.2-.605-3.577-1.896-4.89-5.596-5.697-.544-.119-1.385-.076-1.25-.853.068-.39.293-.518.573-.541zm1.24 2.902c1.639-.038 3.559 1.878 3.533 3.535.017.454-.034.93-.584.994-.397.047-.655-.28-.695-.68-.148-1.477-.951-2.35-2.467-2.587-.453-.068-.903-.213-.69-.813.14-.398.52-.439.903-.449z" stroke-width=".04"/></svg>