<svg xmlns="http://www.w3.org/2000/svg" width="457" height="381" viewBox="0 0 128.97556 107.52667"><g fill="#cff3f7" fill-opacity=".988"><path d="M0 0h26.585c11.884 39.725 40.72 79.815 74.402 93.484C81.736 87.5 55.103 66.32 35.305 46.306 20.425 31.263 7.83 14.956 0 0z"/><path d="M14.768 31.923c19.056 24.342 44.454 46.87 76.615 61.904-21.65-6.733-50.608-17.647-68.006-27.894-.213-5.88-9.742-14.813-11.792-24.604-.722-3.453.1-6.703 3.183-9.406zM47.078 87.392c10.531 2.842 22.487 6.495 33.888 9.648 7.892 2.183 15.829 4.893 23.942 7.847-15.725-3.027-33.645-7.966-51.74-10.26 5.173-.598 6.966-1.423 5.869-2.602-.924-.991-3.822-2.141-8.116-3.444-1.142-.347-2.507-.825-3.843-1.19zM91.383 93.827c12.304 5.65 25.12 10.55 37.593 13.7-12.953-4.567-25.312-9.134-37.593-13.7z"/></g></svg>