<svg xmlns="http://www.w3.org/2000/svg" width="16" height="16"><g fill="#2f5e07"><path transform="matrix(.07428 .00898 -.00992 .06835 31.722 14.06)" d="M-325.803-162.902c25.61 20.245 48.386 23.25 51.708 46.637 2.256 15.884-15.223 47.72-17.592 61.927-.601 3.605-.164 5.93 1.683 6.861 10.248 5.169 11.046-16.134 25.474-22.452 10.306-4.514 28.902-2.182 42.698-6.267-2.07 20.135 7.113 30.954-.711 49.696-5.054 12.104-23.086 18.116-19.736 21.86 1.68 1.878 6.222 2.214 12.98 7.675 4.27 3.45 7.748 8.22 7.092 14.606-6.832 8.282-21.782 8.536-34.6 12.601-13.316 4.224-26.15 16.67-40.454 15.08-5.79-.644-13.33-2.688-24.789-14.543-2.751 3.925-6.068 26.556-9.384 39.505-2.942 2.025-8.354 3.257-12.762 2.721 5.641-8.988 13.318-21.47 14.92-43.446 1.254-2.503 7.694-3.846 8.715-2.406 2.95 4.166 15.48 14.914 25.405 15.715 12.284.991 23.15-10.192 34.154-14.154 12.277-4.42 23.59-5.277 31.476-11.448 1.106-5.97-.774-9.787-3.651-12.5-5.127-4.836-13.446-6.165-13.602-9.932-.307-7.467 19.938-10.589 21.75-23.198 1.536-10.692-.359-24.274-2.62-41.263-12.817 1.408-29.214.803-37.07 5.132-17.557 9.676-14.312 26.157-27.522 22.12-12.668-3.87 8.607-27.386 8.348-67.217-.152-23.372-17.42-29.198-41.91-50.495l-.254-1.508z" stroke="#000"/><path d="M6.879 12.94c.01.015.642-.611.825-1.445.025-.115.259.016.298-.085-.218 1.04-.415 1.581-.23 1.813-.158-.04-.31-.12-.54.397 0 0-.173-.123-.194-.19-.02-.067-.16-.49-.16-.49z"/><path d="M-262.772 118.085c9.765 25.812 9.126 101.239 3.305 145.84 10.118-50.43 8.845-121.102.92-146.173z" stroke="#000" transform="matrix(.09285 .01122 .0124 -.08544 29.965 26.17)"/><path d="M-259.92 272.053c-19.737-16.195-37.289-18.599-39.849-37.309-1.739-12.707 11.731-38.177 13.557-49.543.463-2.884.123-4.744-1.3-5.49-7.898-4.134-8.51 12.91-19.629 17.965-7.943 3.61-22.273 1.745-32.906 5.013 1.595-16.108-5.485-24.764.546-39.758 3.894-9.683 17.792-14.493 15.21-17.488-1.295-1.502-4.797-1.772-10.004-6.14-3.291-2.762-5.97-6.573-5.465-11.682 5.266-6.625 16.786-6.83 26.664-10.082 10.263-3.38 20.155-13.335 31.178-12.064 4.462.515 10.273 2.15 19.104 11.635.326-.483.667-1.41 1.012-2.517a16.447 16.447 0 0 1 1.116 5.673c-1.427.35-2.783 1.21-3.168.647-2.274-3.333-12.036-12.833-19.685-13.473-9.466-.794-17.84 8.151-26.321 11.32-9.462 3.537-18.183 4.224-24.26 9.16-.853 4.777.598 7.826 2.815 9.997 3.951 3.869 10.363 4.932 10.483 7.946.237 5.974-15.367 8.473-16.764 18.56-1.184 8.555.277 19.42 2.02 33.013 9.878-1.127 22.517-.645 28.571-4.109 13.531-7.74 11.027-20.923 21.207-17.694 9.763 3.097-6.63 21.908-6.43 53.772.117 18.699 13.425 23.36 32.298 40.397l.196 1.205z" stroke="#000" transform="matrix(.09285 .01122 .0124 -.08544 29.965 26.17)"/></g></svg>