<svg xmlns="http://www.w3.org/2000/svg" width="88" height="88"><g fill="#2f5e08" fill-opacity=".986"><path d="M49.493 1c9.262 7.376 17.499 8.471 18.7 16.992.816 5.788-5.506 17.387-6.362 22.564-.218 1.313-.06 2.16.608 2.5 3.707 1.883 3.995-5.879 9.213-8.18 3.728-1.646 10.453-.796 15.442-2.284-.748 7.336 2.573 11.278-.257 18.107-1.827 4.41-8.35 6.6-7.137 7.965.607.684 2.25.806 4.694 2.796 1.544 1.257 2.802 2.995 2.565 5.322-2.471 3.017-7.878 3.11-12.513 4.591-4.816 1.54-9.458 6.074-14.63 5.494-2.095-.234-4.822-.979-8.966-5.298-.995 1.43-2.195 9.676-3.394 14.394-1.064.738-3.021 1.186-4.615.991 2.04-3.275 4.816-7.822 5.396-15.83.453-.912 2.782-1.401 3.151-.876 1.068 1.518 5.599 5.434 9.188 5.725 4.443.362 8.373-3.713 12.352-5.157 4.44-1.61 8.532-1.922 11.384-4.17.4-2.176-.28-3.566-1.32-4.555-1.855-1.762-4.864-2.246-4.92-3.62-.111-2.72 7.21-3.857 7.866-8.451.556-3.896-.13-8.845-.948-15.035-4.635.513-10.565.293-13.406 1.87-6.35 3.526-5.176 9.53-9.953 8.06-4.582-1.41 3.112-9.979 3.019-24.491-.055-8.516-6.3-10.639-15.157-18.398l-.092-.55z"/><path d="M49.495 1c-9.262 7.376-17.499 8.471-18.7 16.992-.816 5.788 5.548 17.38 6.362 22.564.169 1.074.87 2.223.2 4.359 4.582-1.41-3.112-9.979-3.019-24.491.055-8.516 6.3-10.639 15.157-18.398l.092-.55z"/><path d="M30.476 50.665h5.731l-.092.38c-.883 0-1.478.14-1.784.422-.306.28-.636 1.051-.99 2.311l-.887 3.165c.32.007.551.01.694.01 1.047 0 1.77-.085 2.167-.257.398-.171.797-.495 1.198-.97.401-.477.887-1.348 1.459-2.615.557-1.227 1.06-1.968 1.509-2.225.449-.257.887-.385 1.315-.385.49 0 .87.125 1.143.375.272.25.408.526.408.827 0 .288-.089.553-.266.796-.176.243-.428.365-.754.365-.211 0-.373-.04-.485-.118-.112-.079-.27-.259-.474-.54-.17-.226-.353-.339-.55-.339a.65.65 0 0 0-.516.247c-.139.164-.358.572-.657 1.223-.646 1.404-1.214 2.395-1.703 2.974a3.64 3.64 0 0 1-1.785 1.176c.306.117.625.545.958 1.285l1.683 3.709c.306.664.6 1.106.882 1.325.282.22.763.356 1.443.411l-.081.38H36.84l-2.111-4.716c-.402-.89-.73-1.48-.985-1.767-.255-.288-.62-.431-1.096-.431-.095 0-.238.01-.428.03l-1.224 4.305c-.177.63-.265 1.076-.265 1.336 0 .5.523.788 1.57.863l-.081.38h-5.548l.133-.38c.53 0 .904-.048 1.121-.144.218-.096.415-.228.592-.395.177-.168.398-.721.663-1.66l2.468-8.753c.176-.63.265-1.048.265-1.254 0-.377-.12-.632-.357-.765-.238-.134-.643-.2-1.214-.2zm13.034 3.38l1.152-3.688h.377c.061.28.217.421.469.421.095 0 .218-.02.367-.061.918-.247 1.673-.37 2.264-.37 1.088 0 1.904.293 2.448.878.544.586.815 1.255.815 2.009 0 .842-.302 1.627-.907 2.353-.605.726-1.4 1.263-2.386 1.613a3.261 3.261 0 0 1 1.61 1.058 2.64 2.64 0 0 1 .643 1.736c0 1.199-.484 2.319-1.453 3.36-.969 1.041-2.272 1.562-3.91 1.562-.844 0-1.55-.13-2.117-.39-.568-.261-1.16-.669-1.78-1.223l.276-.267c1.026.821 2.097 1.232 3.212 1.232 1.108 0 1.994-.47 2.657-1.412s.994-1.886.994-2.83c0-.624-.207-1.184-.622-1.68-.415-.497-1.275-.746-2.58-.746l.204-.667c.775 0 1.443-.113 2.004-.34.56-.226 1.055-.683 1.484-1.371.428-.688.642-1.464.642-2.327 0-1.192-.602-1.788-1.805-1.788-1.598 0-2.828.98-3.692 2.938zm18.264-3.698c.918 0 1.73.2 2.437.6.707.401 1.262.994 1.663 1.778.4.785.601 1.598.601 2.44 0 1.494-.43 3.06-1.29 4.7-.86 1.641-1.983 2.893-3.37 3.756s-2.822 1.295-4.304 1.295c-1.067 0-1.96-.238-2.677-.714a4.296 4.296 0 0 1-1.59-1.886c-.344-.78-.516-1.537-.516-2.27 0-1.302.311-2.588.933-3.858.622-1.27 1.365-2.333 2.229-3.185.863-.853 1.784-1.509 2.763-1.968a7.263 7.263 0 0 1 3.121-.688zm-.347.657c-.68 0-1.344.17-1.993.509-.65.339-1.294.894-1.933 1.664-.64.77-1.214 1.78-1.724 3.026-.625 1.534-.938 2.983-.938 4.346 0 .973.248 1.834.745 2.584.496.75 1.257 1.125 2.284 1.125.619 0 1.226-.154 1.82-.462.595-.308 1.216-.836 1.862-1.582.809-.939 1.489-2.136 2.04-3.591.55-1.456.825-2.814.825-4.074 0-.932-.248-1.755-.744-2.471-.496-.716-1.244-1.074-2.244-1.074zm8.21-.339H80.14l-1.132 3.699h-.388c.13-.541.194-1.024.194-1.449 0-.5-.153-.876-.459-1.13-.231-.192-.826-.288-1.785-.288h-1.09l-2.734 9.597c-.347 1.205-.52 1.948-.52 2.23 0 .26.109.474.326.641.218.168.602.252 1.153.252h.469l-.122.38h-6.017l.112-.38h.265c.53 0 .938-.086 1.224-.257.197-.116.375-.327.535-.632.16-.304.383-.95.668-1.936l2.866-9.895h-.826c-.796 0-1.436.103-1.923.309a2.847 2.847 0 0 0-1.177.894c-.3.39-.544.945-.735 1.664h-.377z" style="line-height:125%;-inkscape-font-specification:Serif Italic" font-size="46.2" font-style="italic" font-weight="400" letter-spacing="0" word-spacing="0" font-family="Serif"/><path d="M.983 59.66c.116-.117.318-.219.607-.306.29-.088.586-.154.89-.197.303-.044.586-.08.846-.11s.449-.044.564-.044c-.52.758-.665 1.582-.433 2.471.231.89.767 1.596 1.606 2.121.838.525 1.945.765 3.32.721 1.374-.044 2.944-.634 4.71-1.771 1.417-.962 2.806-2.179 4.166-3.651a43.135 43.135 0 0 0 3.819-4.788 44.015 44.015 0 0 0 2.127-3.367c-.347.03-.65.044-.911.044-.347 0-.723.029-1.129.087a39.12 39.12 0 0 1-2.56-.109 33.24 33.24 0 0 1-1.91-.197 19.13 19.13 0 0 1-1.845-.328c-.564-.13-1.035-.291-1.41-.48-.377-.19-.58-.43-.609-.723-.057-.233.008-.451.196-.656.188-.204.355-.335.5-.393.144-.029.361 0 .65.087.29.087.586.197.89.328.304.131.6.255.89.372.289.117.52.205.694.262.435.088.927.19 1.477.307.55.117 1.106.211 1.67.284a48.3 48.3 0 0 0 1.563.175c.477.044.86.051 1.15.022.376 0 .796-.015 1.259-.044.202-.35.39-.685.564-1.007a54.582 54.582 0 0 0 2.517-5.444c.695-1.763 1.237-3.425 1.628-4.984.39-1.56.586-2.894.586-4.001 0-.816-.123-1.515-.369-2.099-.246-.583-.564-1.056-.955-1.42a3.483 3.483 0 0 0-1.367-.788 5.284 5.284 0 0 0-1.563-.241c-1.794 0-3.53.343-5.208 1.028-1.678.685-3.154 1.508-4.427 2.47-1.274.962-2.294 1.968-3.06 3.018-.768 1.049-1.151 1.938-1.151 2.666 0 .118.022.206.065.264.044.058.095.117.153.175a.76.76 0 0 1 .151.24c.044.102.065.24.065.416 0 .116-.152.437-.455.961a28.488 28.488 0 0 1-1.063 1.684c-.405.597-.803 1.13-1.194 1.596-.39.466-.658.699-.803.699-.145 0-.319-.036-.521-.109a5.294 5.294 0 0 1-.608-.262 1.673 1.673 0 0 1-.498-.372c-.13-.145-.196-.29-.196-.437 0-.933.246-1.953.738-3.061.492-1.108 1.172-2.223 2.04-3.345a23.224 23.224 0 0 1 3.103-3.258 25.65 25.65 0 0 1 3.928-2.82 21.638 21.638 0 0 1 4.514-1.99 16.107 16.107 0 0 1 4.817-.744 8.14 8.14 0 0 1 2.388.372c.81.247 1.548.634 2.213 1.159.666.525 1.215 1.21 1.65 2.055.433.846.65 1.866.65 3.061 0 1.458-.245 3.018-.737 4.68-.492 1.66-1.172 3.366-2.04 5.115a44.063 44.063 0 0 1-2.387 4.198l.608-.13a69.722 69.722 0 0 0 2.127-.482 6.2 6.2 0 0 0 .694-.22l-.087.57-1.041.393c-.347.117-.774.24-1.28.372-.507.13-1.035.255-1.585.371l-.044.044a.542.542 0 0 0-.086.131 58.925 58.925 0 0 1-3.82 5.03 47.637 47.637 0 0 1-4.275 4.438c-1.49 1.355-2.973 2.514-4.449 3.476-1.534.992-2.995 1.677-4.384 2.056-1.39.379-2.655.532-3.798.459-1.142-.073-2.14-.314-2.995-.722-.854-.409-1.498-.912-1.932-1.509-.434-.597-.629-1.239-.585-1.924.044-.685.37-1.333.977-1.945z" style="line-height:125%;-inkscape-font-specification:Sans" font-size="96.011" font-weight="400" letter-spacing="0" word-spacing="0" font-family="Rosa Marena"/><path d="M14.125 48.122c19.72 4.37 40.152-4.223 35.899-43.42C56.17 43.794 33.588 53.82 14.701 50.19zm33.547 22.097s2.737-3.862 3.552-7.688c-.232 5.561.18 7.748.18 7.748l-1.572 3.276s-.912-.532-1.056-.87a360.49 360.49 0 0 0-1.104-2.466z"/><path d="M15.222 63.087c-.905.604-1.759 1.376-2.95 1.77-.196.635-.28 1.176-.203 1.93 2.471 3.018 7.876 3.108 12.511 4.59 4.816 1.538 9.463 6.066 14.636 5.487 2.094-.234 4.818-.975 8.962-5.294 1.087 1.313 1.582 2.151 1.085-.274-.453-.912-1.258-1.572-1.627-1.047-1.067 1.518-5.588 5.435-9.177 5.727-4.443.361-8.373-3.714-12.353-5.158-4.44-1.61-8.54-1.919-11.392-4.167-.281-1.529-.028-2.678.508-3.564z"/></g></svg>