<?xml version="1.0" encoding="UTF-8" standalone="no"?>
<!-- Created with Inkscape (http://www.inkscape.org/) -->

<svg
   xmlns:dc="http://purl.org/dc/elements/1.1/"
   xmlns:cc="http://creativecommons.org/ns#"
   xmlns:rdf="http://www.w3.org/1999/02/22-rdf-syntax-ns#"
   xmlns:svg="http://www.w3.org/2000/svg"
   xmlns="http://www.w3.org/2000/svg"
   xmlns:sodipodi="http://sodipodi.sourceforge.net/DTD/sodipodi-0.dtd"
   xmlns:inkscape="http://www.inkscape.org/namespaces/inkscape"
   version="1.1"
   width="88"
   height="88"
   id="svg3049"
   sodipodi:docname="icon.svg"
   inkscape:version="0.48.3.1 r9886">
  <sodipodi:namedview
     pagecolor="#ffffff"
     bordercolor="#666666"
     borderopacity="1"
     objecttolerance="10"
     gridtolerance="10"
     guidetolerance="10"
     inkscape:pageopacity="0"
     inkscape:pageshadow="2"
     inkscape:window-width="1280"
     inkscape:window-height="971"
     id="namedview16"
     showgrid="false"
     inkscape:zoom="4.2682752"
     inkscape:cx="130.65653"
     inkscape:cy="47.425324"
     inkscape:window-x="-8"
     inkscape:window-y="-8"
     inkscape:window-maximized="1"
     inkscape:current-layer="g3110"
     inkscape:showpageshadow="false" />
  <defs
     id="defs3051" />
  <metadata
     id="metadata3054">
    <rdf:RDF>
      <cc:Work
         rdf:about="">
        <dc:format>image/svg+xml</dc:format>
        <dc:type
           rdf:resource="http://purl.org/dc/dcmitype/StillImage" />
        <dc:title />
      </cc:Work>
    </rdf:RDF>
  </metadata>
  <g
     id="g3110"
     transform="matrix(0.45176323,0,0,-0.45544571,167.26735,125.90553)">
    <path
       inkscape:connector-curvature="0"
       style="fill:#2f5e08;fill-opacity:0.98596042;stroke:none"
       id="path3062"
       d="m -260.70036,274.249 c 20.50228,-16.19576 38.73522,-18.59988 41.39479,-37.30949 1.80632,-12.70709 -12.18706,-38.17577 -14.08352,-49.54185 -0.48109,-2.88327 -0.13096,-4.74368 1.34745,-5.48876 8.20385,-4.13453 8.84273,12.9074 20.39285,17.96229 8.25075,3.61093 23.13735,1.74509 34.18219,5.01321 -1.65683,-16.10802 5.69418,-24.7634 -0.56979,-39.75703 -4.04527,-9.68287 -18.48132,-14.4924 -15.79884,-17.48767 1.34523,-1.50208 4.98053,-1.77099 10.3901,-6.13989 3.41852,-2.76088 6.20302,-6.57589 5.67805,-11.68532 -5.46924,-6.62506 -17.4373,-6.8286 -27.69803,-10.08067 -10.66082,-3.37887 -20.93551,-13.33505 -32.38578,-12.06319 -4.63541,0.51489 -10.67127,2.14986 -19.84464,11.63407 -2.20273,-3.13995 -4.85782,-21.24479 -7.51208,-31.604438 -2.35544,-1.62019 -6.68828,-2.605399 -10.21642,-2.177027 4.51548,7.191013 10.66129,17.175965 11.9442,34.757375 1.00334,2.00248 6.15914,3.0769 6.97621,1.92424 2.36212,-3.33226 12.39232,-11.93053 20.33783,-12.57143 9.83353,-0.79318 18.53225,8.15325 27.34176,11.32294 9.82811,3.53618 18.88425,4.22157 25.19753,9.15841 0.88583,4.77582 -0.61968,7.82928 -2.9226,9.9999 -4.10439,3.86863 -10.76426,4.93199 -10.88855,7.94599 -0.24635,5.97359 15.96047,8.47065 17.41104,18.55813 1.23007,8.55397 -0.287,19.41892 -2.09748,33.01072 -10.25999,-1.12683 -23.38686,-0.64292 -29.6754,-4.10618 -14.05533,-7.74064 -11.45764,-20.9255 -22.03277,-17.69602 -10.14128,3.09699 6.89007,21.90901 6.68299,53.77378 -0.12152,18.69812 -13.94624,23.35875 -33.55109,40.39581 l -0.20336,1.20711 z" />
    <path
       inkscape:connector-curvature="0"
       style="fill:#2f5e08;fill-opacity:0.98596042;stroke:none"
       id="path3064"
       d="m -260.69421,274.249 c -20.50229,-16.19576 -38.73523,-18.59988 -41.3948,-37.30949 -1.80633,-12.70709 12.28104,-38.16051 14.08352,-49.54185 0.37333,-2.35725 1.92569,-4.88155 0.44317,-9.57035 10.14128,3.09699 -6.89008,21.90901 -6.68299,53.77378 0.12152,18.69812 13.94625,23.35875 33.5511,40.39581 l 0.20334,1.20711 z" />
    <g
       transform="matrix(1.0006769,0,0,-1,0.11879048,2.1956267)"
       style="font-size:46.20041656px;font-style:italic;font-variant:normal;font-weight:normal;font-stretch:normal;line-height:125%;letter-spacing:0px;word-spacing:0px;fill:#2f5e08;fill-opacity:0.98596042;stroke:none;font-family:Serif;-inkscape-font-specification:Serif Italic"
       id="text3066">
      <path
         d="m -302.7084,-163.00582 12.67805,0 -0.20303,0.83467 c -1.95511,3e-5 -3.27104,0.30834 -3.94779,0.92492 -0.67678,0.61663 -1.40618,2.30854 -2.1882,5.07572 l -1.96262,6.94811 c 0.70683,0.0151 1.21816,0.0226 1.534,0.0226 2.31602,2e-5 3.91393,-0.18797 4.79374,-0.56397 0.87978,-0.37596 1.76333,-1.08656 2.65066,-2.1318 0.88729,-1.04521 1.9626,-2.95894 3.22591,-5.74122 1.23319,-2.69199 2.34609,-4.31998 3.3387,-4.88398 0.99256,-0.56394 1.96259,-0.84592 2.91009,-0.84595 1.08279,3e-5 1.92498,0.27449 2.52658,0.82339 0.60154,0.54896 0.90232,1.15429 0.90235,1.81599 -3e-5,0.63167 -0.19554,1.21444 -0.58652,1.7483 -0.39106,0.53392 -0.94751,0.80087 -1.66936,0.80084 -0.46624,3e-5 -0.82342,-0.0865 -1.07154,-0.25942 -0.24817,-0.17293 -0.59784,-0.56771 -1.04898,-1.18434 -0.37601,-0.49627 -0.78207,-0.74441 -1.21818,-0.74444 -0.4512,3e-5 -0.83094,0.1805 -1.13922,0.54141 -0.30833,0.36097 -0.79334,1.2558 -1.45504,2.6845 -1.42875,3.08305 -2.68452,5.25998 -3.76732,6.53077 -1.08284,1.27083 -2.39877,2.13182 -3.94779,2.58298 0.67675,0.25568 1.38359,1.19563 2.12053,2.81985 l 3.7222,8.14373 c 0.67674,1.4588 1.32719,2.42883 1.95134,2.91008 0.6241,0.48126 1.68812,0.78204 3.19207,0.90235 l -0.18047,0.83468 -7.08347,0 -4.66967,-10.35449 c -0.88733,-1.95508 -1.61297,-3.24845 -2.17692,-3.88011 -0.56398,-0.63163 -1.37234,-0.94746 -2.42507,-0.94747 -0.21056,1e-5 -0.52638,0.0226 -0.94747,0.0677 l -2.70706,9.45214 c -0.39102,1.38361 -0.58653,2.36116 -0.58653,2.93264 0,1.09787 1.15801,1.72951 3.47406,1.89494 l -0.18047,0.83468 -12.27199,0 0.29327,-0.83468 c 1.17306,0 2.00021,-0.10527 2.48147,-0.31582 0.48125,-0.21055 0.91738,-0.50005 1.30841,-0.86851 0.39101,-0.36846 0.87979,-1.58288 1.46632,-3.64325 l 5.45923,-19.2201 c 0.39101,-1.38358 0.58651,-2.30097 0.58653,-2.75217 -2e-5,-0.82713 -0.2632,-1.38734 -0.78956,-1.68063 -0.52638,-0.29323 -1.42122,-0.43987 -2.6845,-0.4399 z"
         id="path3026"
         inkscape:connector-curvature="0" />
      <path
         d="m -273.87825,-155.58398 2.54914,-8.0986 0.83468,0 c 0.13534,0.61663 0.48124,0.92494 1.0377,0.92491 0.21054,3e-5 0.48125,-0.0451 0.81212,-0.13536 2.03028,-0.54138 3.69963,-0.81208 5.00805,-0.81211 2.40626,3e-5 4.21096,0.64295 5.41411,1.92877 1.20312,1.28588 1.80468,2.75596 1.80471,4.41025 -3e-5,1.84984 -0.66927,3.57183 -2.00774,5.16596 -1.3385,1.59418 -3.09809,2.77475 -5.27875,3.54173 1.4287,0.42112 2.6168,1.19564 3.56428,2.32356 0.94745,1.12795 1.42119,2.39876 1.42121,3.81244 -2e-5,2.63186 -1.07156,5.09077 -3.21463,7.37672 -2.1431,2.28596 -5.02686,3.42894 -8.6513,3.42894 -1.86487,0 -3.42518,-0.28574 -4.68095,-0.85723 -1.25577,-0.57149 -2.56794,-1.46632 -3.93651,-2.6845 l 0.60909,-0.58653 c 2.27091,1.80471 4.63959,2.70706 7.10602,2.70706 2.45138,0 4.41023,-1.03395 5.87657,-3.10184 1.4663,-2.06788 2.19946,-4.13953 2.19948,-6.21495 -2e-5,-1.36855 -0.45871,-2.59801 -1.37609,-3.68836 -0.9174,-1.09033 -2.81986,-1.6355 -5.70737,-1.63551 l 0.45117,-1.46632 c 1.71446,10e-6 3.19206,-0.24813 4.43281,-0.74444 1.24072,-0.49628 2.33482,-1.50015 3.2823,-3.0116 0.94745,-1.51142 1.42119,-3.21461 1.42121,-5.10957 -2e-5,-2.61679 -1.33099,-3.9252 -3.99291,-3.92523 -3.53422,3e-5 -6.25632,2.15063 -8.16629,6.45181 z"
         id="path3028"
         inkscape:connector-curvature="0" />
      <path
         d="m -233.47545,-163.70514 c 2.03027,3e-5 3.82745,0.43992 5.39155,1.31969 1.56405,0.87982 2.78974,2.18071 3.67709,3.90267 0.88728,1.72201 1.33093,3.50791 1.33097,5.35771 -4e-5,3.27856 -0.95126,6.71878 -2.85369,10.32065 -1.90249,3.6019 -4.38771,6.35031 -7.45568,8.24524 -3.06802,1.89494 -6.24129,2.84241 -9.51982,2.84241 -2.36116,0 -4.33505,-0.52261 -5.92168,-1.56784 -1.58664,-1.04522 -2.7597,-2.42506 -3.51917,-4.13953 -0.75948,-1.71447 -1.13922,-3.3763 -1.13922,-4.9855 0,-2.85743 0.68804,-5.68104 2.06413,-8.47083 1.37608,-2.78975 3.01911,-5.12082 4.9291,-6.99322 1.90996,-1.87236 3.94777,-3.31236 6.11343,-4.32001 2.16563,-1.0076 4.46662,-1.51141 6.90299,-1.51144 z m -0.767,1.44376 c -1.50394,3e-5 -2.97402,0.37225 -4.41024,1.11666 -1.43626,0.74447 -2.86122,1.96264 -4.27489,3.65453 -1.4137,1.69193 -2.68451,3.90645 -3.81244,6.64356 -1.38361,3.3688 -2.07542,6.54958 -2.07541,9.54237 -1e-5,2.13557 0.54892,4.02675 1.64679,5.67354 1.09785,1.64679 2.78224,2.47019 5.05317,2.47019 1.36855,0 2.7108,-0.33838 4.02675,-1.01515 1.31591,-0.67676 2.68823,-1.83478 4.11698,-3.47405 1.78964,-2.06037 3.29356,-4.68846 4.51176,-7.8843 1.21815,-3.19582 1.82723,-6.17733 1.82726,-8.94457 -3e-5,-2.0453 -0.54896,-3.85376 -1.64679,-5.42539 -1.09789,-1.57156 -2.7522,-2.35736 -4.96294,-2.35739 z"
         id="path3030"
         inkscape:connector-curvature="0" />
      <path
         d="m -216.08261,-163.00582 23.23556,0 -2.50403,8.12117 -0.85723,0 c 0.28572,-1.18808 0.42859,-2.24834 0.42862,-3.18079 -3e-5,-1.09784 -0.33841,-1.92499 -1.01515,-2.48147 -0.51136,-0.42107 -1.82729,-0.63162 -3.94779,-0.63165 l -2.41379,0 -6.04576,21.06992 c -0.76701,2.6469 -1.15051,4.27865 -1.1505,4.89526 -1e-5,0.57149 0.24062,1.04146 0.72188,1.40992 0.48125,0.36846 1.33096,0.55269 2.54915,0.55269 l 1.0377,0 -0.2707,0.83468 -13.30969,0 0.24814,-0.83468 0.58653,0 c 1.17306,0 2.07541,-0.18799 2.70706,-0.56397 0.43613,-0.25566 0.83091,-0.71812 1.18434,-1.38736 0.35341,-0.66924 0.84594,-2.08669 1.4776,-4.25234 l 6.33902,-21.72412 -1.82726,0 c -1.7596,3e-5 -3.17704,0.22562 -4.25234,0.67677 -1.07531,0.4512 -1.94382,1.1054 -2.60554,1.96261 -0.66173,0.85726 -1.20314,2.07543 -1.62423,3.65453 l -0.83468,0 z"
         id="path3032"
         inkscape:connector-curvature="0" />
    </g>
    <g
       transform="matrix(1.0006769,0,0,-1,0.11879048,2.1956267)"
       style="font-size:96.0112915px;font-style:normal;font-variant:normal;font-weight:normal;font-stretch:normal;line-height:125%;letter-spacing:0px;word-spacing:0px;fill:#2f5e08;fill-opacity:0.98596042;stroke:none;font-family:Rosa Marena;-inkscape-font-specification:Sans"
       id="text3070">
      <path
         d="m -367.94854,-143.25695 c 0.25589,-0.25588 0.70369,-0.48003 1.34342,-0.67244 0.63972,-0.1924 1.29556,-0.33646 1.96752,-0.43218 0.67194,-0.0957 1.29604,-0.17579 1.87229,-0.24026 0.57623,-0.0644 0.99229,-0.0967 1.24819,-0.0967 -1.15249,1.66426 -1.47235,3.47258 -0.95958,5.42495 0.51274,1.95238 1.69696,3.50481 3.55266,4.65729 1.85567,1.15247 4.30371,1.68037 7.34413,1.58368 3.04037,-0.0967 6.51294,-1.39323 10.41773,-3.88962 3.13705,-2.11157 6.20967,-4.78376 9.21788,-8.01657 3.00812,-3.23279 5.82388,-6.7371 8.44728,-10.51295 1.66421,-2.36744 3.23275,-4.8316 4.70563,-7.39247 -0.76772,0.0645 -1.43967,0.0967 -2.01586,0.0967 -0.76772,3e-5 -1.59985,0.0635 -2.49639,0.19045 -0.38486,3e-5 -1.08904,-0.0156 -2.11255,-0.0469 -1.02361,-0.0312 -2.20734,-0.0952 -3.5512,-0.19192 -1.34395,-0.0967 -2.75232,-0.24072 -4.22511,-0.43218 -1.47286,-0.1914 -2.83338,-0.43117 -4.08153,-0.71932 -1.24823,-0.28809 -2.28839,-0.64018 -3.12048,-1.05628 -0.83217,-0.41603 -1.28046,-0.94441 -1.34489,-1.58514 -0.127,-0.51175 0.0175,-0.99179 0.43365,-1.44011 0.41603,-0.44827 0.78423,-0.7359 1.10462,-0.8629 0.32031,-0.0644 0.80035,-9.4e-4 1.44011,0.19045 0.63969,0.19147 1.29552,0.43124 1.96752,0.71933 0.67191,0.28815 1.32775,0.56064 1.96751,0.81748 0.63968,0.25689 1.15195,0.44881 1.5368,0.57575 0.96101,0.19146 2.04952,0.4156 3.26552,0.67244 1.21592,0.2569 2.448,0.46493 3.69624,0.6241 1.24814,0.15922 2.40013,0.28717 3.45597,0.38383 1.05574,0.0967 1.90398,0.11284 2.54474,0.0483 0.83207,3e-5 1.75991,-0.0322 2.78353,-0.0967 0.44726,-0.76764 0.86332,-1.50406 1.24819,-2.20925 2.17598,-4.09615 4.03215,-8.0805 5.56853,-11.95306 1.53624,-3.87248 2.73658,-7.52086 3.60101,-10.94514 0.86429,-3.42417 1.29647,-6.35225 1.29653,-8.78424 -6e-5,-1.79116 -0.27207,-3.32698 -0.81601,-4.60747 -0.54408,-1.28036 -1.24826,-2.32052 -2.11255,-3.12049 -0.86443,-0.79982 -1.87285,-1.37606 -3.02526,-1.72871 -1.15254,-0.35251 -2.30502,-0.5288 -3.45744,-0.52888 -3.96732,8e-5 -7.80712,0.75212 -11.51942,2.25613 -3.71239,1.50415 -6.97694,3.31247 -9.79363,5.42495 -2.81678,2.11262 -5.07339,4.32089 -6.76984,6.62481 -1.69652,2.30403 -2.54476,4.25592 -2.54473,5.85567 -3e-5,0.25789 0.0483,0.45078 0.14503,0.57868 0.0967,0.12799 0.20898,0.25594 0.33696,0.38383 0.12791,0.128 0.23974,0.3038 0.33549,0.52741 0.0957,0.22371 0.14354,0.52794 0.14357,0.9127 -3e-5,0.25594 -0.33601,0.95964 -1.00793,2.11109 -0.67199,1.15155 -1.45577,2.38363 -2.35136,3.69624 -0.89563,1.31269 -1.77562,2.4808 -2.63995,3.50431 -0.86439,1.0236 -1.45674,1.53538 -1.77707,1.53534 -0.32037,4e-5 -0.70469,-0.0796 -1.15297,-0.2388 -0.44831,-0.15916 -0.89612,-0.35107 -1.34342,-0.57575 -0.44733,-0.22459 -0.81505,-0.4966 -1.10315,-0.81601 -0.28814,-0.31933 -0.4322,-0.6392 -0.43218,-0.95959 -2e-5,-2.04902 0.54399,-4.28952 1.63203,-6.72149 1.08799,-2.43188 2.59207,-4.87992 4.51224,-7.34413 1.92013,-2.4641 4.20848,-4.84865 6.86507,-7.15367 2.65653,-2.30489 5.55286,-4.3691 8.68901,-6.19262 3.13607,-1.82339 6.46409,-3.27961 9.98408,-4.36868 3.5199,-1.08892 7.07207,-1.63342 10.65653,-1.63349 1.72866,7e-5 3.48912,0.27208 5.28138,0.81601 1.79214,0.54408 3.42417,1.39233 4.89609,2.54473 1.47178,1.15255 2.68774,2.65712 3.64789,4.51372 0.96,1.85673 1.44003,4.09673 1.44011,6.72003 -8e-5,3.2016 -0.54409,6.62632 -1.63203,10.27415 -1.08809,3.64794 -2.59217,7.39203 -4.51225,11.23228 -1.5354,3.07266 -3.29538,6.14529 -5.27992,9.21788 l 1.34489,-0.28714 c 1.21492,-0.25586 2.23847,-0.4805 3.07067,-0.67391 0.57617,-0.12693 1.12067,-0.25439 1.63349,-0.38237 0.51269,-0.12791 1.02496,-0.28857 1.53681,-0.48199 l -0.19339,1.2482 -2.303,0.86436 c -0.76774,0.25591 -1.7117,0.52792 -2.83188,0.81601 -1.12031,0.28815 -2.28891,0.56015 -3.50578,0.81601 l -0.0967,0.0967 c -0.0626,0.0645 -0.12606,0.16021 -0.19045,0.28715 -2.62537,3.84032 -5.44211,7.52092 -8.45022,11.04182 -3.00821,3.52094 -6.16044,6.76936 -9.45667,9.74529 -3.29633,2.97594 -6.5765,5.52067 -9.84052,7.6342 -3.39301,2.17603 -6.62581,3.68011 -9.6984,4.51225 -3.07265,0.83212 -5.87278,1.1681 -8.40041,1.00793 -2.52765,-0.16018 -4.73592,-0.68856 -6.6248,-1.58515 -1.8889,-0.89659 -3.31338,-2.00072 -4.27345,-3.3124 -0.96008,-1.31168 -1.39177,-2.71956 -1.29507,-4.22364 0.0967,-1.50408 0.81698,-2.92807 2.16089,-4.27199 z"
         id="path3022"
         inkscape:connector-curvature="0" />
    </g>
    <path
       inkscape:connector-curvature="0"
       style="fill:#2f5e08;fill-opacity:0.98596042;stroke:none"
       id="path3021"
       d="m -338.98891,170.78548 c 43.65399,-9.59317 88.87917,9.27329 79.46509,95.33607 13.60479,-85.83352 -36.38108,-107.84616 -78.19025,-99.87595 z" />
    <path
       inkscape:connector-curvature="0"
       style="fill:#2f5e08;fill-opacity:0.98596042;stroke:none"
       id="path3025"
       d="m -264.72942,122.26812 c 0,0 6.05671,8.47877 7.86152,16.88022 -0.51307,-12.21054 0.40028,-17.01131 0.40028,-17.01131 l -3.48115,-7.19428 c 0,0 -2.0185,1.16781 -2.3372,1.91097 -0.31871,0.74315 -2.44345,5.4144 -2.44345,5.4144 z" />
    <path
       inkscape:connector-curvature="0"
       style="fill:#2f5e08;fill-opacity:0.98596042;stroke:none"
       id="path3053"
       d="m -336.55894,137.92763 c -2.00428,-1.32514 -3.89406,-3.02216 -6.52942,-3.88781 -0.43426,-1.3925 -0.62049,-2.58081 -0.4503,-4.23719 5.46924,-6.62506 17.433,-6.82293 27.69373,-10.075 10.66082,-3.37887 20.94664,-13.32186 32.39692,-12.05 4.6354,0.51489 10.66504,2.14079 19.83841,11.625 2.40622,-2.88373 3.50221,-4.72441 2.40163,0.6 -1.00335,2.00248 -2.78537,3.45266 -3.60244,2.3 -2.36212,-3.33226 -12.36823,-11.9341 -20.31374,-12.575 -9.83352,-0.79318 -18.53398,8.15531 -27.34349,11.325 -9.82812,3.53618 -18.90378,4.21316 -25.21706,9.15 -0.62253,3.35629 -0.0605,5.87861 1.12576,7.825 z" />
  </g>
</svg>
