<?xml version="1.0" encoding="UTF-8" standalone="no"?>
<!-- Created with Inkscape (http://www.inkscape.org/) -->

<svg
   xmlns:dc="http://purl.org/dc/elements/1.1/"
   xmlns:cc="http://creativecommons.org/ns#"
   xmlns:rdf="http://www.w3.org/1999/02/22-rdf-syntax-ns#"
   xmlns:svg="http://www.w3.org/2000/svg"
   xmlns="http://www.w3.org/2000/svg"
   xmlns:sodipodi="http://sodipodi.sourceforge.net/DTD/sodipodi-0.dtd"
   xmlns:inkscape="http://www.inkscape.org/namespaces/inkscape"
   version="1.1"
   width="16"
   height="16"
   id="svg3049"
   sodipodi:docname="favicon.svg"
   inkscape:version="0.48.3.1 r9886">
  <sodipodi:namedview
     pagecolor="#ffffff"
     bordercolor="#666666"
     borderopacity="1"
     objecttolerance="10"
     gridtolerance="10"
     guidetolerance="10"
     inkscape:pageopacity="0"
     inkscape:pageshadow="2"
     inkscape:window-width="1280"
     inkscape:window-height="971"
     id="namedview16"
     showgrid="false"
     inkscape:zoom="5.6568543"
     inkscape:cx="77.756018"
     inkscape:cy="57.364987"
     inkscape:window-x="-8"
     inkscape:window-y="-8"
     inkscape:window-maximized="1"
     inkscape:current-layer="g836"
     inkscape:showpageshadow="false"
     inkscape:snap-global="false" />
  <defs
     id="defs3051" />
  <metadata
     id="metadata3054">
    <rdf:RDF>
      <cc:Work
         rdf:about="">
        <dc:format>image/svg+xml</dc:format>
        <dc:type
           rdf:resource="http://purl.org/dc/dcmitype/StillImage" />
        <dc:title />
      </cc:Work>
    </rdf:RDF>
  </metadata>
  <g
     id="g3110"
     transform="matrix(0.45176323,0,0,-0.45544571,167.26735,53.90553)">
    <g
       id="g836"
       transform="matrix(0.20553222,-0.02464434,0.0274426,0.1875959,-303.92515,60.898286)">
      <path
         transform="matrix(0.8,0,0,-0.8,0,141.732)"
         d="m -325.80342,-162.90171 c 25.61052,20.2447 48.38628,23.24985 51.7085,46.63686 2.25637,15.88386 -15.22353,47.719711 -17.5925,61.927307 -0.60095,3.604089 -0.16359,5.929609 1.68318,6.860961 10.24787,5.168155 11.04593,-16.134252 25.47382,-22.452871 10.30646,-4.51366 28.90212,-2.181361 42.69883,-6.266508 -2.06964,20.135024 7.11291,30.954254 -0.71175,49.696281 -5.05317,12.103598 -23.08603,18.1155111 -19.73519,21.8595966 1.68039,1.8775926 6.22144,2.2137358 12.97884,7.674862 4.27025,3.4510918 7.74852,8.2198544 7.09275,14.6066504 -6.83192,8.281321 -21.78187,8.535748 -34.59911,12.600833 -13.31701,4.223592 -26.15169,16.668807 -40.45485,15.078986 -5.79034,-0.643606 -13.33006,-2.687324 -24.78902,-14.542584 -2.75155,3.924932 -6.06816,26.555982 -9.38375,39.505542 -2.9423,2.025238 -8.35469,3.256749 -12.76188,2.721284 5.64053,-8.988766 13.31759,-21.469947 14.92015,-43.446712 1.25333,-2.503108 7.69371,-3.846127 8.71436,-2.405301 2.95065,4.165326 15.47993,14.91316 25.4051,15.71428 12.28359,0.991482 23.14964,-10.191561 34.15408,-14.153672 12.27682,-4.420226 23.58934,-5.276964 31.4756,-11.448005 1.10654,-5.96978 -0.77407,-9.7865988 -3.65077,-12.4998857 -5.12702,-4.83577602 -13.44623,-6.1649824 -13.60149,-9.9324797 -0.30772,-7.4669936 19.9371,-10.5883166 21.74909,-23.1976636 1.53654,-10.692463 -0.35851,-24.273655 -2.62008,-41.263395 -12.81632,1.408529 -29.21381,0.803646 -37.06916,5.132719 -17.55728,9.675798 -14.31237,26.156871 -27.52234,22.120021 -12.66802,-3.871236 8.60677,-27.38626 8.34809,-67.217226 -0.1518,-23.37264 -17.42101,-29.19843 -41.9105,-50.49476 l -0.25402,-1.50888 z"
         id="path3062"
         style="fill:#2f5e07;fill-opacity:1;stroke:#000000;stroke-opacity:1"
         inkscape:connector-curvature="0" />
      <path
         sodipodi:nodetypes="csccccc"
         transform="matrix(0.8,0,0,-0.8,0,141.732)"
         d="m -330.83633,27.074382 c 0.17623,0.192739 7.32356,-9.905098 8.14375,-22.2053512 0.1134,-1.7005768 3.4581,-0.2184816 3.78587,-1.7453233 -0.89915,15.3286325 -2.45556,23.4536925 0.43342,26.4624335 -2.16501,-0.306734 -4.33796,-1.191876 -6.39127,6.644962 0,0 -2.52142,-1.459767 -2.91953,-2.38871 -0.39812,-0.928942 -3.05224,-6.768011 -3.05224,-6.768011 z"
         id="path3025"
         style="fill:#2f5e07;fill-opacity:1;stroke:none"
         inkscape:connector-curvature="0" />
      <path
         sodipodi:nodetypes="cccc"
         inkscape:connector-curvature="0"
         id="path824"
         d="m -262.77206,118.08498 c 9.76536,25.81157 9.12654,101.23869 3.30507,145.84094 10.11798,-50.43119 8.8449,-121.10338 0.91949,-146.17384 z"
         style="fill:#2f5e07;fill-opacity:1;stroke:#000000;stroke-opacity:1" />
      <path
         sodipodi:nodetypes="csssscscccsscccccsccsccsssccc"
         inkscape:connector-curvature="0"
         id="path826"
         d="m -259.91976,272.05335 c -19.73726,-16.19576 -37.28879,-18.59931 -39.84913,-37.30892 -1.73892,-12.70709 11.73084,-38.17759 13.55654,-49.54367 0.46313,-2.88327 0.12381,-4.74405 -1.29943,-5.48913 -7.89773,-4.13453 -8.50972,12.90914 -19.62886,17.96403 -7.94288,3.61093 -22.27365,1.745 -32.90635,5.01312 1.595,-16.10802 -5.48464,-24.76396 0.54559,-39.75759 3.89432,-9.68287 17.79236,-14.49275 15.20997,-17.48802 -1.29502,-1.50208 -4.7962,-1.77206 -10.00393,-6.14096 -3.29095,-2.76088 -5.96964,-6.57212 -5.46426,-11.68155 5.26515,-6.62506 16.78541,-6.82992 26.66327,-10.08199 10.26302,-3.37887 20.15493,-13.33508 31.17794,-12.06322 4.46245,0.51489 10.27302,2.15017 19.1041,11.63438 0.3259,-0.48257 0.66716,-1.41019 1.01205,-2.51728 0.69321,1.76612 1.07489,3.68365 1.11618,5.67353 -1.42741,0.35031 -2.78288,1.21052 -3.16779,0.64648 -2.27398,-3.33226 -12.03563,-12.83213 -19.68466,-13.47303 -9.4666,-0.79318 -17.84096,8.15164 -26.32175,11.32133 -9.46137,3.53618 -18.18245,4.22314 -24.26015,9.15998 -0.85278,4.77582 0.59844,7.8256 2.81542,9.99622 3.95124,3.86863 10.36323,4.93237 10.48289,7.94637 0.23715,5.97359 -15.36701,8.47264 -16.76346,18.56012 -1.18416,8.55397 0.27703,19.42016 2.01995,33.01196 9.87716,-1.12683 22.51687,-0.64501 28.57076,-4.10827 13.53086,-7.74064 11.02681,-20.92334 21.20733,-17.69386 9.76287,3.09699 -6.62985,21.90724 -6.4305,53.77201 0.11698,18.69812 13.42497,23.3595 32.29828,40.39656 l 0.19576,1.20503 z"
         style="fill:#2f5e07;fill-opacity:1;stroke:#000000;stroke-opacity:1" />
    </g>
  </g>
</svg>
