<svg xmlns="http://www.w3.org/2000/svg" width="425" height="272" viewBox="0 0 119.94445 76.764447"><g fill="#cff3f7" fill-opacity=".988"><path d="M0 0h24.723c11.052 28.36 37.869 56.98 69.193 66.739-17.904-4.271-42.672-19.392-61.083-33.68C18.994 22.319 7.281 10.677 0 0z"/><path d="M13.734 22.79c17.721 17.378 41.341 33.462 71.25 44.194C64.85 62.177 37.92 54.386 21.74 47.07c-.198-4.197-9.06-10.575-10.966-17.565-.672-2.465.093-4.785 2.96-6.715zM43.781 62.39c9.794 2.03 20.913 4.637 31.516 6.888 7.34 1.559 14.72 3.493 22.265 5.602-14.624-2.16-31.29-5.687-48.117-7.325 4.811-.427 6.479-1.016 5.458-1.857-.859-.708-3.555-1.529-7.547-2.46-1.063-.247-2.332-.588-3.575-.848zM84.984 66.984c11.442 4.034 23.36 7.532 34.96 9.78-12.046-3.26-23.539-6.52-34.96-9.78z"/></g></svg>