<svg xmlns="http://www.w3.org/2000/svg" id="Слой_1" viewBox="0 0 523.25 360"><style id="style3">.st0{fill:none}.st1{fill:#1a171b}.st2{fill:#fbb03b;stroke:#000;stroke-miterlimit:10}.st3{fill:url(#_x31_0_dpi_30_x25_)}.st4,.st5,.st6,.st7{fill:#a67c52;stroke:#000;stroke-miterlimit:10}.st5,.st6,.st7{fill:#c69c6d}.st6,.st7{fill:#603813}.st7{fill:#42210b}.st8{fill:#f9f1d5}.st9{fill:#f2e3ab}.st10{fill:#006837}.st11{fill:#009245}.st12{fill:#603813}.st13{fill:#8c6239;stroke:#000;stroke-miterlimit:10}</style><pattern width="28.8" height="28.8" patternUnits="userSpaceOnUse" id="_x31_0_dpi_30_x25_" viewBox="2.2 -31 28.8 28.8"><g id="g6"><path class="st0" id="rect8" d="M2.2-31H31v28.8H2.2z"/><g id="g10"><path class="st1" d="M31 0c1.2 0 2.2-1 2.2-2.2 0-1.2-1-2.2-2.2-2.2-1.2 0-2.2 1-2.2 2.2C28.8-1 29.8 0 31 0z" id="path12"/><path class="st1" d="M16.6 0c1.2 0 2.2-1 2.2-2.2 0-1.2-1-2.2-2.2-2.2-1.2 0-2.2 1-2.2 2.2 0 1.2 1 2.2 2.2 2.2z" id="path14"/><path class="st1" d="M31-14.4c1.2 0 2.2-1 2.2-2.2 0-1.2-1-2.2-2.2-2.2-1.2 0-2.2 1-2.2 2.2 0 1.2 1 2.2 2.2 2.2z" id="path16"/><path class="st1" d="M16.6-14.4c1.2 0 2.2-1 2.2-2.2 0-1.2-1-2.2-2.2-2.2-1.2 0-2.2 1-2.2 2.2 0 1.2 1 2.2 2.2 2.2z" id="path18"/><path class="st1" d="M9.4-7.2c1.2 0 2.2-1 2.2-2.2 0-1.2-1-2.2-2.2-2.2-1.2 0-2.2 1-2.2 2.2 0 1.2 1 2.2 2.2 2.2z" id="path20"/><path class="st1" d="M23.8-7.2c1.2 0 2.2-1 2.2-2.2 0-1.2-1-2.2-2.2-2.2-1.2 0-2.2 1-2.2 2.2 0 1.2 1 2.2 2.2 2.2z" id="path22"/><path class="st1" d="M9.4-21.6c1.2 0 2.2-1 2.2-2.2 0-1.2-1-2.2-2.2-2.2-1.2 0-2.2 1-2.2 2.2 0 1.2 1 2.2 2.2 2.2z" id="path24"/><path class="st1" d="M23.8-21.6c1.2 0 2.2-1 2.2-2.2 0-1.2-1-2.2-2.2-2.2-1.2 0-2.2 1-2.2 2.2 0 1.2 1 2.2 2.2 2.2z" id="path26"/></g><g id="g28"><path class="st1" d="M2.2 0c1.2 0 2.2-1 2.2-2.2 0-1.2-1-2.2-2.2-2.2C1-4.3 0-3.4 0-2.2 0-1 1 0 2.2 0z" id="path30"/><path class="st1" d="M2.2-14.4c1.2 0 2.2-1 2.2-2.2 0-1.2-1-2.2-2.2-2.2-1.2 0-2.2 1-2.2 2.2 0 1.2 1 2.2 2.2 2.2z" id="path32"/></g><g id="g34"><path class="st1" d="M31-28.8c1.2 0 2.2-1 2.2-2.2 0-1.2-1-2.2-2.2-2.2-1.2 0-2.2 1-2.2 2.2 0 1.2 1 2.2 2.2 2.2z" id="path36"/><path class="st1" d="M16.6-28.8c1.2 0 2.2-1 2.2-2.2 0-1.2-1-2.2-2.2-2.2-1.2 0-2.2 1-2.2 2.2 0 1.2 1 2.2 2.2 2.2z" id="path38"/></g><g id="g40"><path class="st1" d="M2.2-28.8c1.2 0 2.2-1 2.2-2.2 0-1.2-1-2.2-2.2-2.2C1-33.1 0-32.2 0-31c0 1.2 1 2.2 2.2 2.2z" id="path42"/></g></g></pattern><path class="st2" id="rect44" fill="#fbb03b" stroke="#000" stroke-width=".447" stroke-miterlimit="10" d="M.223-.124h522.803v238.843H.223z"/><ellipse class="st3" cx="638.8" cy="589.9" rx="302.7" ry="291.3" id="ellipse46" transform="matrix(.39809 0 0 .39809 4.53 -27.656)" fill="url(#_x31_0_dpi_30_x25_)"/><path class="st4" id="rect48" fill="#a67c52" stroke="#000" stroke-width=".398" stroke-miterlimit="10" d="M52.699 238.743h414.806v121.018H52.699z"/><g id="g50" transform="matrix(.39809 0 0 .39809 4.53 -27.656)"><path class="st5" d="M532.1 858.8S504.8 740 495.2 669.4c93.1-11.2 287.3 0 287.3 0S760 844.4 744 865.2c-77.1 28.9-141.3 35.3-211.9-6.4z" id="path52" fill="#c69c6d" stroke="#000" stroke-miterlimit="10"/><ellipse class="st6" cx="638.8" cy="669.4" rx="143.7" ry="25.7" id="ellipse54" fill="#603813" stroke="#000" stroke-miterlimit="10"/></g><g id="g56" transform="matrix(.39809 0 0 .39809 4.53 -27.656)"><path class="st7" d="M574.7 810l14.7 114.2s46.7 30.7 103.5.7c12.7-52.8 18-114.9 18-114.9H574.7z" id="path58" fill="#42210b" stroke="#000" stroke-miterlimit="10"/><ellipse class="st4" cx="642.8" cy="810" rx="68.1" ry="12" id="ellipse60" fill="#a67c52" stroke="#000" stroke-miterlimit="10"/></g><g id="g62" transform="matrix(.39809 0 0 .39809 4.53 -27.656)"><path class="st8" d="M735 486.5c0 54.3-49.5 132.1-89.6 132.5-40.1.4-97.2-76-97.2-130.3 0-54.3 43.5-66.3 97.2-66.3 53.7-.1 89.6 9.8 89.6 64.1z" id="path64" fill="#f9f1d5"/><path class="st9" d="M564.6 476c21.1 14.7 115.4 33.9 148.4-5.1s10.9 139.9-69.6 134.8c-80.5-5.3-99.9-144.5-78.8-129.7z" id="path66" fill="#f2e3ab"/><path class="st9" d="M620.9 432.6s-20.6 21.1-3.7 24.3c16.9 3.2 16.4-13.2 24.8-12.2 8.5 1.1 22.2-8.5 18-12.2-4.2-3.6-20.6-9.9-39.1.1z" id="path68" fill="#f2e3ab"/><path class="st10" d="M570.5 142.2l7-12.7s25.4 156.5 40.9 160.7c15.5 4.2 16.9-80.4 22.6-84.6 5.6-4.2 64.8-55 64.8-55l2.8 8.5s-56.4 46.5-56.4 52.2c0 5.7-22.6 91.6-19.7 97.3 2.8 5.6 21.1 125.5 21.1 125.5s-28.2 15.5-28.2 8.5-5.6-122.6-5.6-128.3c0-5.7-25.4-42.3-25.4-42.3l-46.5-36.7 45.1 26.8-22.5-119.9z" id="path70" fill="#006837"/><path class="st11" d="M670.6 129.6s-25.4 47.9-2.8 50.7c22.6 2.8 7-45.1 2.8-50.7z" id="path72" fill="#009245"/><path class="st10" d="M686.1 208.5s-32.4-15.5-35.2 9.9c-2.9 25.3 35.2-9.9 35.2-9.9z" id="path74" fill="#006837"/><path class="st10" d="M717.1 109.8s-36.7 29.6-18.3 39.5c18.3 9.9 18.3-39.5 18.3-39.5z" id="path76" fill="#006837"/><path class="st11" d="M731.2 163.4s-49.3-11.3-39.5 4.2c9.8 15.5 39.5-4.2 39.5-4.2z" id="path78" fill="#009245"/><path class="st11" d="M586 105.6s-29.6 1.4-15.5 24c14.1 22.6 15.5-24 15.5-24z" id="path80" fill="#009245"/><path class="st10" d="M545.1 219.8s-8.5 29.6 9.9 26.8c18.3-2.9-9.9-26.8-9.9-26.8z" id="path82" fill="#006837"/><path class="st10" d="M557.8 271.9s9.9-24 25.4-8.5c15.5 15.6-25.4 8.5-25.4 8.5z" id="path84" fill="#006837"/><path class="st11" d="M601.5 149.3s-39.5 7-21.1 26.8 21.1-26.8 21.1-26.8z" id="path86" fill="#009245"/><path class="st10" d="M546.5 188.8s16.9 46.5 36.7 29.6c19.7-16.9-36.7-29.6-36.7-29.6z" id="path88" fill="#006837"/><path class="st10" d="M614.2 225.4s-14.1 29.6 4.2 33.8c18.3 4.3-4.2-33.8-4.2-33.8z" id="path90" fill="#006837"/><path class="st11" d="M664.9 259.3s-62 4.2-38.1 14.1c24 9.8 38.1-14.1 38.1-14.1z" id="path92" fill="#009245"/><path class="st11" d="M546.5 128.2s-2.8 33.8 15.5 32.4c18.4-1.4-15.5-32.4-15.5-32.4z" id="path94" fill="#009245"/><path class="st12" d="M689.6 531s-4.6 3.9-2.1 4.6c2.5.7 17.6 7.8 14.8 21.9-2.8 14.1-6.7 48.6-.4 49 6.3.4-7.9-3.7 1.6-46 6-27.9-13.9-29.5-13.9-29.5z" id="path96" fill="#603813"/><path class="st12" d="M570.9 541.8s4.6-3.5 3.5 1.1c-1.1 4.6-8.5 41.6-4.9 46.2 3.6 4.5-5.3-20.8 1.4-47.3z" id="path98" fill="#603813"/><path class="st12" d="M664.8 545s3.5-3.5 4.9-1.1c1.4 2.5-3.9 65.2 2.8 65.2 6.8 0-9.1-43-7.7-64.1z" id="path100" fill="#603813"/><path class="st12" d="M620.2 609.6l6 1.4s-.7 26.4 1.4 32.8c2.1 6.3 2.1 24-2.5 26.8-4.6 2.8 4.2-10.6.7-26.4-3.5-16-8.4-34.3-5.6-34.6z" id="path102" fill="#603813"/><path class="st12" d="M652.6 615.2l4.6-1.1s-5.6 24.3-2.8 27.8c2.8 3.6-4.6-8.7-1.8-26.7z" id="path104" fill="#603813"/><path class="st12" d="M715.6 548.7s-4.9.4-2.1 3.9c2.8 3.5-5.6 14.4-2.5 22.9 3.1 8.5 1.1-16.9 4.2-17.6 3.1-.7.4-9.2.4-9.2z" id="path106" fill="#603813"/><path class="st12" d="M585.6 583.8s16.2-4.2 10.6 4.2-6.3 27.8-2.8 32.1c3.5 4.2-9.5-2.5-5.3-26.4 3.5-9.5-2.5-9.9-2.5-9.9z" id="path108" fill="#603813"/><path class="st12" d="M601.1 530.3s16.2-2.5 7.4 4.6c-8.8 7-3.2 31.7-3.2 31.7s-4.9-8.5-4.2-36.3z" id="path110" fill="#603813"/><path class="st12" d="M637.4 564.8s9.2.4 6.7 2.8c-2.5 2.5-7.4 9.9-6 23.3 1.4 13.4 3.9 24 1.4 22.9-2.4-1.1-4.9-36.3-2.1-49z" id="path112" fill="#603813"/><path class="st12" d="M561.6 506.1s6.7 4.9 2.1 5.3c-4.6.4-18.3 22.9-14.8 28.9s10.9 16.9 6.7 20.8c-4.2 3.9 3.5-6-9.5-20.4-13-14.5 15.5-34.6 15.5-34.6z" id="path114" fill="#603813"/><path class="st12" d="M715.4 510.9s1.4-14.1 4.2-10.6c2.8 3.5 19 15.2 14.4 33.8-4.6 18.7-8.1 16.9-3.5 21.1 4.6 4.2-8.8 1.1-.7-21.5 8.1-22.4-14.4-22.8-14.4-22.8z" id="path116" fill="#603813"/></g><path class="st13" d="M130.426 239.061s13.485 118.073 130.87 117.197c117.386-.876 125.302-117.197 125.302-117.197l136.453-.278V359.8H.199V238.783z" id="path118" fill="#8c6239" stroke="#000" stroke-width=".398" stroke-miterlimit="10"/></svg>